<?xml version="1.0" encoding="UTF-8" standalone="no"?><!-- Generator: Gravit.io --><svg xmlns="http://www.w3.org/2000/svg" xmlns:xlink="http://www.w3.org/1999/xlink" style="isolation:isolate" viewBox="0 0 502.192 136.56" width="502.192pt" height="136.56pt"><defs><clipPath id="_clipPath_Slocew7eLEWXJN6VlNOIytSEzLmEnFmV"><rect width="502.192" height="136.56"/></clipPath></defs><g clip-path="url(#_clipPath_Slocew7eLEWXJN6VlNOIytSEzLmEnFmV)"><clipPath id="_clipPath_GzFcP3s3lSr0WXE1HZyyedQfQibgrsaE"><rect x="0" y="0" width="502.192" height="136.56" transform="matrix(1,0,0,1,0,0)" fill="rgb(255,255,255)"/></clipPath><g clip-path="url(#_clipPath_GzFcP3s3lSr0WXE1HZyyedQfQibgrsaE)"><path d=" M 435.29 105.55 L 435.29 87.83 C 435.906 87.264 436.6 86.789 437.35 86.42 C 438.064 86.065 438.852 85.883 439.65 85.89 C 440.584 85.819 441.498 86.189 442.12 86.89 C 442.725 87.709 443.023 88.714 442.96 89.73 L 442.96 105.53 L 450.4 105.53 L 450.4 89.73 C 450.41 88.449 450.221 87.173 449.84 85.95 C 449.509 84.849 448.954 83.827 448.21 82.95 C 447.486 82.095 446.581 81.412 445.56 80.95 C 444.421 80.459 443.19 80.217 441.95 80.24 C 441.207 80.236 440.466 80.313 439.74 80.47 C 439.087 80.612 438.451 80.819 437.84 81.09 C 437.26 81.366 436.711 81.701 436.2 82.09 C 435.683 82.481 435.185 82.899 434.71 83.34 L 434.28 81.9 C 434.177 81.522 433.943 81.192 433.62 80.97 C 433.275 80.747 432.87 80.635 432.46 80.65 L 427.82 80.65 L 427.82 105.52 L 435.29 105.55 L 435.29 105.55 Z  M 407.29 98.61 C 405.662 95.124 405.662 91.096 407.29 87.61 C 408.178 86.376 409.644 85.694 411.16 85.81 C 412.646 85.702 414.079 86.386 414.93 87.61 C 416.547 91.098 416.547 95.122 414.93 98.61 C 414.085 99.867 412.63 100.574 411.12 100.46 C 409.602 100.577 408.133 99.89 407.25 98.65 M 405.92 81.23 C 404.426 81.792 403.064 82.656 401.92 83.77 C 400.777 84.904 399.887 86.267 399.31 87.77 C 398.676 89.467 398.364 91.268 398.39 93.08 C 398.365 94.908 398.677 96.725 399.31 98.44 C 399.89 99.941 400.78 101.304 401.92 102.44 C 403.062 103.563 404.424 104.438 405.92 105.01 C 407.583 105.628 409.346 105.934 411.12 105.91 C 412.878 105.932 414.624 105.627 416.27 105.01 C 419.296 103.874 421.684 101.486 422.82 98.46 C 423.461 96.747 423.777 94.929 423.75 93.1 C 423.778 91.287 423.462 89.485 422.82 87.79 C 421.69 84.747 419.286 82.35 416.24 81.23 C 414.592 80.621 412.847 80.32 411.09 80.34 C 409.317 80.318 407.555 80.62 405.89 81.23 M 394.52 72.23 C 394.036 71.171 393.162 70.34 392.08 69.91 C 391.522 69.68 390.923 69.565 390.32 69.57 C 389.736 69.563 389.157 69.679 388.62 69.91 C 388.095 70.127 387.616 70.443 387.21 70.84 C 386.794 71.238 386.455 71.709 386.21 72.23 C 385.981 72.767 385.865 73.346 385.87 73.93 C 385.864 74.504 385.98 75.074 386.21 75.6 C 386.455 76.115 386.794 76.58 387.21 76.97 C 387.621 77.361 388.099 77.676 388.62 77.9 C 389.154 78.14 389.735 78.259 390.32 78.25 C 390.925 78.257 391.524 78.137 392.08 77.9 C 392.616 77.681 393.108 77.366 393.53 76.97 C 393.95 76.584 394.29 76.118 394.53 75.6 C 394.764 75.074 394.883 74.505 394.88 73.93 C 394.882 73.345 394.763 72.766 394.53 72.23 M 386.59 105.61 L 394.02 105.61 L 394.02 80.68 L 386.59 80.68 L 386.59 105.61 L 386.59 105.61 Z  M 379.59 105.46 C 380.757 105.116 381.855 104.568 382.83 103.84 L 380.57 100.31 C 380.458 100.124 380.317 99.959 380.15 99.82 C 379.991 99.712 379.802 99.659 379.61 99.67 C 379.466 99.664 379.322 99.691 379.19 99.75 L 378.81 99.94 C 378.657 100.019 378.496 100.082 378.33 100.13 C 378.109 100.195 377.88 100.226 377.65 100.22 C 377.176 100.246 376.722 100.031 376.44 99.65 C 376.147 99.236 376 98.737 376.02 98.23 L 376.02 85.82 L 382.02 85.82 L 382.02 80.73 L 376.02 80.73 L 376.02 73.46 L 372.13 73.46 C 371.371 73.365 370.665 73.863 370.5 74.61 L 369.04 80.67 L 365.04 81.44 L 365.04 84.34 C 365.009 84.725 365.142 85.104 365.407 85.385 C 365.672 85.665 366.044 85.82 366.43 85.81 L 368.54 85.81 L 368.54 98.66 C 368.527 99.68 368.689 100.695 369.02 101.66 C 369.318 102.514 369.795 103.295 370.42 103.95 C 371.094 104.631 371.915 105.147 372.82 105.46 C 373.824 105.82 374.884 105.996 375.95 105.98 C 377.21 105.983 378.463 105.801 379.67 105.44 M 347.97 100.54 C 347.458 100.089 347.197 99.418 347.27 98.74 C 347.267 98.314 347.381 97.895 347.6 97.53 C 347.883 97.092 348.286 96.745 348.76 96.53 C 349.483 96.183 350.25 95.937 351.04 95.8 C 352.251 95.587 353.48 95.49 354.71 95.51 L 354.71 98.92 C 354.081 99.587 353.339 100.139 352.52 100.55 C 351.729 100.895 350.873 101.066 350.01 101.05 C 349.305 101.092 348.605 100.91 348.01 100.53 M 362.01 105.58 L 362.01 90.01 C 362.02 88.671 361.794 87.34 361.34 86.08 C 360.916 84.922 360.26 83.864 359.41 82.97 C 358.54 82.093 357.494 81.411 356.34 80.97 C 355.043 80.466 353.661 80.218 352.27 80.24 C 350.264 80.234 348.272 80.572 346.38 81.24 C 344.533 81.903 342.834 82.923 341.38 84.24 L 342.73 86.56 C 342.939 86.931 343.23 87.249 343.58 87.49 C 343.967 87.747 344.425 87.877 344.89 87.86 C 345.398 87.871 345.903 87.772 346.37 87.57 C 346.79 87.38 347.22 87.16 347.66 86.92 C 348.137 86.664 348.636 86.45 349.15 86.28 C 349.849 86.064 350.579 85.966 351.31 85.99 C 352.268 85.937 353.202 86.301 353.87 86.99 C 354.553 87.902 354.873 89.035 354.77 90.17 L 354.77 91.24 C 352.386 91.183 350.006 91.442 347.69 92.01 C 346.108 92.395 344.601 93.041 343.23 93.92 C 342.247 94.548 341.447 95.424 340.91 96.46 C 340.479 97.303 340.246 98.233 340.23 99.18 C 340.209 100.205 340.389 101.224 340.76 102.18 C 341.086 103.003 341.6 103.739 342.26 104.33 C 342.931 104.852 343.699 105.236 344.52 105.46 C 345.523 105.772 346.569 105.924 347.62 105.91 C 348.395 105.916 349.169 105.846 349.93 105.7 C 350.62 105.576 351.291 105.368 351.93 105.08 C 352.552 104.801 353.148 104.466 353.71 104.08 C 354.334 103.648 354.934 103.184 355.51 102.69 L 356.04 104.06 C 356.195 104.551 356.512 104.974 356.94 105.26 C 357.441 105.476 357.985 105.571 358.53 105.54 L 362.01 105.58 L 362.01 105.58 Z  M 337.02 80.68 L 317.82 80.68 L 317.82 86.2 L 328.59 86.2 L 318.11 100.09 C 317.816 100.489 317.577 100.927 317.4 101.39 C 317.257 101.754 317.172 102.139 317.15 102.53 L 317.15 105.53 L 336.82 105.53 L 336.82 100.02 L 325.67 100.02 L 336.06 86.3 C 336.333 85.93 336.558 85.527 336.73 85.1 C 336.922 84.637 337.021 84.141 337.02 83.64 L 337.02 80.68 L 337.02 80.68 Z  M 312.96 72.17 C 312.483 71.109 311.611 70.277 310.53 69.85 C 309.972 69.62 309.373 69.505 308.77 69.51 C 308.186 69.503 307.607 69.619 307.07 69.85 C 306.545 70.067 306.066 70.383 305.66 70.78 C 305.237 71.172 304.897 71.645 304.66 72.17 C 304.431 72.707 304.315 73.286 304.32 73.87 C 304.314 74.444 304.43 75.014 304.66 75.54 C 304.898 76.059 305.238 76.525 305.66 76.91 C 306.071 77.301 306.549 77.616 307.07 77.84 C 307.604 78.08 308.185 78.199 308.77 78.19 C 309.375 78.197 309.974 78.077 310.53 77.84 C 311.066 77.621 311.558 77.306 311.98 76.91 C 312.401 76.524 312.741 76.059 312.98 75.54 C 313.221 75.017 313.344 74.446 313.34 73.87 C 313.343 73.284 313.221 72.704 312.98 72.17 M 305.05 105.55 L 312.48 105.55 L 312.48 80.68 L 305.05 80.68 L 305.05 105.55 L 305.05 105.55 Z  M 284.42 105.55 L 284.42 87.83 C 285.041 87.266 285.738 86.791 286.49 86.42 C 287.203 86.062 287.992 85.881 288.79 85.89 C 289.724 85.819 290.638 86.189 291.26 86.89 C 291.865 87.709 292.163 88.714 292.1 89.73 L 292.1 105.53 L 299.53 105.53 L 299.53 89.73 C 299.543 88.449 299.358 87.174 298.98 85.95 C 298.645 84.85 298.09 83.83 297.35 82.95 C 296.626 82.095 295.721 81.412 294.7 80.95 C 293.561 80.46 292.33 80.218 291.09 80.24 C 290.344 80.236 289.599 80.313 288.87 80.47 C 288.22 80.612 287.587 80.819 286.98 81.09 C 286.399 81.364 285.849 81.699 285.34 82.09 C 284.821 82.479 284.323 82.896 283.85 83.34 L 283.42 81.9 C 283.317 81.522 283.083 81.192 282.76 80.97 C 282.413 80.745 282.004 80.633 281.59 80.65 L 276.99 80.65 L 276.99 105.52 L 284.42 105.55 L 284.42 105.55 Z  M 257.71 100.46 C 257.205 100.005 256.948 99.336 257.02 98.66 C 257.018 98.235 257.128 97.818 257.34 97.45 C 257.629 97.014 258.035 96.668 258.51 96.45 C 259.229 96.101 259.993 95.856 260.78 95.72 C 261.991 95.508 263.22 95.41 264.45 95.43 L 264.45 98.84 C 263.826 99.509 263.088 100.061 262.27 100.47 C 261.476 100.817 260.616 100.987 259.75 100.97 C 259.045 101.01 258.346 100.828 257.75 100.45 M 271.75 105.5 L 271.75 90.01 C 271.765 88.67 271.538 87.339 271.08 86.08 C 270.66 84.92 270.003 83.861 269.15 82.97 C 268.282 82.091 267.235 81.409 266.08 80.97 C 264.787 80.465 263.408 80.217 262.02 80.24 C 260.014 80.232 258.021 80.571 256.13 81.24 C 254.282 81.901 252.583 82.921 251.13 84.24 L 252.47 86.56 C 252.683 86.931 252.977 87.249 253.33 87.49 C 253.714 87.746 254.169 87.875 254.63 87.86 C 255.142 87.871 255.65 87.772 256.12 87.57 C 256.53 87.38 256.96 87.16 257.4 86.92 C 257.881 86.664 258.383 86.45 258.9 86.28 C 259.599 86.064 260.329 85.966 261.06 85.99 C 262.015 85.938 262.945 86.303 263.61 86.99 C 264.293 87.902 264.613 89.035 264.51 90.17 L 264.51 91.24 C 262.13 91.184 259.752 91.443 257.44 92.01 C 255.858 92.395 254.351 93.041 252.98 93.92 C 251.994 94.548 251.191 95.424 250.65 96.46 C 250.222 97.304 249.993 98.234 249.98 99.18 C 249.959 100.205 250.139 101.224 250.51 102.18 C 250.836 103.003 251.35 103.739 252.01 104.33 C 252.694 104.93 253.499 105.377 254.37 105.64 C 255.37 105.951 256.413 106.103 257.46 106.09 C 258.238 106.096 259.015 106.026 259.78 105.88 C 260.47 105.757 261.142 105.549 261.78 105.26 C 262.405 104.981 263.004 104.646 263.57 104.26 C 264.14 103.86 264.74 103.4 265.37 102.87 L 265.9 104.24 C 266.055 104.728 266.368 105.15 266.79 105.44 C 267.295 105.655 267.842 105.751 268.39 105.72 L 271.75 105.5 L 271.75 105.5 Z  M 233.3 91.5 C 232.89 91.349 232.518 91.11 232.21 90.8 C 231.925 90.52 231.71 90.178 231.58 89.8 C 231.436 89.375 231.365 88.929 231.37 88.48 C 231.322 87.611 231.621 86.759 232.2 86.11 C 232.934 85.468 233.9 85.157 234.87 85.25 C 235.843 85.159 236.812 85.469 237.55 86.11 C 238.126 86.76 238.421 87.613 238.37 88.48 C 238.461 89.417 238.114 90.344 237.43 90.992 C 236.746 91.639 235.801 91.933 234.87 91.79 C 234.336 91.804 233.804 91.719 233.3 91.54 M 240.09 107.46 C 239.896 107.813 239.599 108.098 239.24 108.28 C 238.722 108.546 238.165 108.729 237.59 108.82 C 236.721 108.967 235.841 109.034 234.96 109.02 C 234.136 109.033 233.313 108.973 232.5 108.84 C 231.961 108.754 231.438 108.585 230.95 108.34 C 230.616 108.178 230.337 107.921 230.15 107.6 C 229.99 107.291 229.911 106.947 229.92 106.6 C 229.916 106.117 230.07 105.646 230.36 105.26 C 230.683 104.847 231.067 104.486 231.5 104.19 C 232.188 104.33 232.888 104.4 233.59 104.4 L 235.59 104.4 C 236.201 104.398 236.812 104.428 237.42 104.49 C 237.926 104.547 238.425 104.655 238.91 104.81 C 239.281 104.935 239.621 105.136 239.91 105.4 C 240.165 105.668 240.299 106.03 240.28 106.4 C 240.278 106.747 240.195 107.089 240.04 107.4 M 230.71 80.77 C 229.54 81.105 228.439 81.647 227.46 82.37 C 226.558 83.051 225.818 83.921 225.29 84.92 C 224.132 87.253 224.253 90.017 225.61 92.24 C 226.381 93.398 227.434 94.341 228.67 94.98 C 228.136 95.226 227.636 95.539 227.18 95.91 C 226.806 96.238 226.471 96.607 226.18 97.01 C 225.919 97.373 225.717 97.775 225.58 98.2 C 225.461 98.575 225.397 98.966 225.39 99.36 C 225.313 100.803 226.02 102.175 227.24 102.95 C 226.185 103.306 225.236 103.922 224.48 104.74 C 223.808 105.511 223.451 106.507 223.48 107.53 C 223.485 108.393 223.719 109.238 224.16 109.98 C 224.667 110.834 225.378 111.549 226.23 112.06 C 227.32 112.724 228.508 113.213 229.75 113.51 C 231.404 113.905 233.1 114.09 234.8 114.06 C 236.588 114.088 238.37 113.835 240.08 113.31 C 241.479 112.873 242.792 112.196 243.96 111.31 C 244.962 110.542 245.782 109.562 246.36 108.44 C 246.89 107.424 247.171 106.296 247.18 105.15 C 247.224 104.11 246.997 103.076 246.52 102.15 C 246.101 101.394 245.504 100.752 244.78 100.28 C 244.021 99.805 243.185 99.467 242.31 99.28 C 241.376 99.077 240.431 98.931 239.48 98.84 C 238.48 98.75 237.58 98.71 236.65 98.71 C 235.72 98.71 234.9 98.71 234.18 98.6 C 233.584 98.554 232.998 98.422 232.44 98.21 C 232.054 98.071 231.793 97.71 231.78 97.3 C 231.827 96.807 232.143 96.38 232.6 96.19 C 233.329 96.285 234.064 96.331 234.8 96.33 C 236.154 96.342 237.502 96.154 238.8 95.77 C 239.956 95.432 241.04 94.886 242 94.16 C 242.89 93.483 243.62 92.62 244.14 91.63 C 244.664 90.588 244.928 89.436 244.91 88.27 C 244.911 87.514 244.8 86.763 244.58 86.04 L 246.4 85.64 C 246.84 85.571 247.252 85.38 247.59 85.09 C 247.836 84.817 247.962 84.457 247.94 84.09 L 247.94 81.46 L 240.43 81.46 C 239.599 81.068 238.727 80.77 237.83 80.57 C 236.844 80.361 235.838 80.257 234.83 80.26 C 233.459 80.249 232.094 80.441 230.78 80.83 M 213.68 105.56 L 213.68 90.3 Q 215.36 87.18 218.29 87.18 C 218.756 87.174 219.221 87.211 219.68 87.29 C 220.009 87.359 220.344 87.396 220.68 87.4 C 220.948 87.412 221.213 87.342 221.44 87.2 C 221.66 87.013 221.796 86.747 221.82 86.46 L 222.82 80.99 C 222.025 80.417 221.059 80.131 220.08 80.18 C 218.744 80.175 217.442 80.603 216.37 81.4 C 215.145 82.305 214.103 83.435 213.3 84.73 L 212.82 82.46 C 212.766 82.181 212.689 81.907 212.59 81.64 C 212.507 81.433 212.377 81.248 212.21 81.1 C 212.026 80.953 211.81 80.85 211.58 80.8 C 211.278 80.73 210.97 80.696 210.66 80.7 L 206.25 80.7 L 206.25 105.57 L 213.68 105.56 L 213.68 105.56 Z  M 193.37 92.76 C 192.976 94.051 192.319 95.246 191.44 96.27 C 190.598 97.232 189.543 97.986 188.36 98.47 C 187.039 98.99 185.629 99.245 184.21 99.22 C 182.781 99.244 181.361 98.989 180.03 98.47 C 178.844 97.986 177.786 97.233 176.94 96.27 C 176.061 95.246 175.404 94.051 175.01 92.76 C 174.538 91.242 174.309 89.659 174.33 88.07 C 174.31 86.491 174.539 84.918 175.01 83.41 C 175.402 82.115 176.059 80.916 176.94 79.89 C 177.786 78.927 178.844 78.174 180.03 77.69 C 181.358 77.158 182.779 76.897 184.21 76.92 C 185.631 76.897 187.042 77.159 188.36 77.69 C 189.543 78.174 190.598 78.928 191.44 79.89 C 192.321 80.916 192.978 82.115 193.37 83.41 C 193.841 84.918 194.07 86.491 194.05 88.07 C 194.071 89.659 193.842 91.242 193.37 92.76 Z  M 201.04 81.04 C 200.203 78.93 198.952 77.009 197.36 75.39 C 195.726 73.759 193.781 72.473 191.64 71.61 C 186.856 69.776 181.564 69.776 176.78 71.61 C 172.459 73.299 169.038 76.713 167.34 81.03 C 165.607 85.57 165.607 90.59 167.34 95.13 C 169.039 99.453 172.458 102.876 176.78 104.58 C 181.565 106.407 186.855 106.407 191.64 104.58 C 195.95 102.873 199.356 99.449 201.04 95.13 C 202.774 90.597 202.774 85.583 201.04 81.05" fill="rgb(0,139,199)"/><path d=" M 502 29.46 C 501.513 28.976 500.977 28.543 500.4 28.17 C 499.767 27.773 499.097 27.438 498.4 27.17 C 496.804 26.558 495.109 26.25 493.4 26.26 C 491.935 26.235 490.475 26.451 489.08 26.9 C 487.954 27.263 486.911 27.844 486.01 28.61 C 485.22 29.299 484.594 30.157 484.18 31.12 C 483.773 32.067 483.565 33.089 483.57 34.12 C 483.541 35.11 483.711 36.096 484.07 37.02 C 484.375 37.767 484.823 38.446 485.39 39.02 C 485.933 39.57 486.561 40.03 487.25 40.38 C 487.935 40.737 488.643 41.048 489.37 41.31 C 490.09 41.56 490.8 41.79 491.49 41.99 C 492.123 42.168 492.744 42.385 493.35 42.64 C 493.835 42.837 494.282 43.118 494.67 43.47 C 495.002 43.787 495.184 44.231 495.17 44.69 C 495.173 44.963 495.115 45.233 495 45.48 C 494.883 45.75 494.705 45.99 494.48 46.18 C 494.184 46.411 493.844 46.578 493.48 46.67 C 493.001 46.8 492.506 46.861 492.01 46.85 C 491.332 46.866 490.656 46.768 490.01 46.56 C 489.526 46.394 489.058 46.187 488.61 45.94 L 487.49 45.31 C 487.135 45.115 486.735 45.015 486.33 45.02 C 485.934 45.005 485.543 45.102 485.2 45.3 C 484.898 45.493 484.645 45.753 484.46 46.06 L 482.82 48.79 C 483.349 49.257 483.93 49.663 484.55 50 C 485.247 50.401 485.98 50.736 486.74 51 C 487.543 51.275 488.366 51.492 489.2 51.65 C 490.037 51.809 490.888 51.889 491.74 51.89 C 493.263 51.913 494.78 51.704 496.24 51.27 C 497.438 50.908 498.553 50.314 499.52 49.52 C 500.386 48.79 501.07 47.869 501.52 46.83 C 501.972 45.75 502.2 44.59 502.19 43.42 C 502.211 42.531 502.041 41.647 501.69 40.83 C 501.386 40.138 500.944 39.515 500.39 39 C 499.836 38.492 499.213 38.064 498.54 37.73 C 497.856 37.387 497.151 37.086 496.43 36.83 C 495.71 36.57 495.01 36.34 494.32 36.13 C 493.69 35.95 493.072 35.73 492.47 35.47 C 491.994 35.28 491.554 35.01 491.17 34.67 C 490.846 34.377 490.667 33.957 490.68 33.52 C 490.657 32.925 490.94 32.359 491.43 32.02 C 492.08 31.62 492.838 31.432 493.6 31.48 C 494.191 31.473 494.781 31.55 495.35 31.71 C 495.818 31.849 496.279 32.012 496.73 32.2 L 497.87 32.69 C 498.204 32.839 498.565 32.917 498.93 32.92 C 499.216 32.933 499.499 32.867 499.75 32.73 C 500.001 32.564 500.21 32.341 500.36 32.08 L 502 29.46 L 502 29.46 Z  M 451.26 51.46 L 451.26 33.46 C 451.758 32.97 452.328 32.559 452.95 32.24 C 453.54 31.935 454.196 31.777 454.86 31.78 C 455.766 31.718 456.658 32.028 457.33 32.64 C 457.978 33.499 458.278 34.57 458.17 35.64 L 458.17 51.46 L 465.6 51.46 L 465.6 35.67 C 465.528 34.62 465.89 33.587 466.6 32.81 C 467.257 32.142 468.163 31.779 469.1 31.81 Q 472.42 31.81 472.41 35.67 L 472.41 51.46 L 479.82 51.46 L 479.82 35.67 C 479.841 34.315 479.648 32.965 479.25 31.67 C 478.915 30.557 478.338 29.533 477.56 28.67 C 476.799 27.862 475.861 27.243 474.82 26.86 C 473.606 26.417 472.322 26.201 471.03 26.22 C 470.254 26.221 469.48 26.301 468.72 26.46 C 467.954 26.615 467.212 26.867 466.51 27.21 C 465.8 27.549 465.146 27.994 464.57 28.53 C 463.948 29.103 463.431 29.78 463.04 30.53 C 462.589 29.312 461.814 28.241 460.8 27.43 C 459.73 26.62 458.411 26.207 457.07 26.26 C 456.396 26.254 455.725 26.331 455.07 26.49 C 453.932 26.785 452.869 27.317 451.95 28.05 C 451.493 28.42 451.059 28.817 450.65 29.24 L 450.24 27.89 C 450.134 27.513 449.901 27.185 449.58 26.96 C 449.234 26.74 448.829 26.632 448.42 26.65 L 443.82 26.65 L 443.82 51.46 L 451.26 51.46 L 451.26 51.46 Z  M 423.26 44.46 C 421.617 40.977 421.617 36.943 423.26 33.46 C 424.142 32.225 425.607 31.542 427.12 31.66 C 428.607 31.55 430.041 32.235 430.89 33.46 C 432.518 36.946 432.518 40.974 430.89 44.46 C 430.044 45.691 428.609 46.38 427.12 46.27 C 425.604 46.39 424.137 45.702 423.26 44.46 Z  M 421.93 27.04 C 418.862 28.151 416.433 30.548 415.28 33.6 C 414.646 35.298 414.335 37.098 414.36 38.91 C 414.335 40.738 414.647 42.555 415.28 44.27 C 416.43 47.338 418.857 49.754 421.93 50.89 C 425.272 52.09 428.928 52.09 432.27 50.89 C 433.77 50.325 435.133 49.449 436.27 48.32 C 437.407 47.166 438.289 45.786 438.86 44.27 C 439.493 42.555 439.805 40.738 439.78 38.91 C 439.805 37.098 439.494 35.298 438.86 33.6 C 438.281 32.102 437.4 30.741 436.27 29.6 C 435.129 28.483 433.766 27.618 432.27 27.06 C 428.925 25.873 425.275 25.873 421.93 27.06 M 409.3 51.27 C 410.467 50.926 411.565 50.378 412.54 49.65 L 410.28 46.13 C 410.171 45.94 410.029 45.77 409.86 45.63 C 409.701 45.522 409.512 45.469 409.32 45.48 C 409.176 45.478 409.033 45.506 408.9 45.56 L 408.52 45.75 C 408.367 45.832 408.206 45.899 408.04 45.95 C 407.818 46.007 407.589 46.034 407.36 46.03 C 406.889 46.054 406.436 45.845 406.15 45.47 C 405.859 45.052 405.711 44.55 405.73 44.04 L 405.73 31.74 L 411.73 31.74 L 411.73 26.66 L 405.73 26.66 L 405.73 19.39 L 401.82 19.39 C 401.061 19.295 400.355 19.793 400.19 20.54 L 398.73 26.61 L 394.73 27.37 L 394.73 30.28 C 394.703 30.685 394.853 31.083 395.14 31.37 C 395.411 31.621 395.771 31.755 396.14 31.74 L 398.25 31.74 L 398.25 44.59 C 398.235 45.61 398.398 46.625 398.73 47.59 C 399.324 49.334 400.678 50.713 402.41 51.34 C 403.412 51.704 404.474 51.881 405.54 51.86 C 406.8 51.863 408.053 51.681 409.26 51.32 M 392.6 29.46 C 392.113 28.976 391.577 28.543 391 28.17 C 390.367 27.773 389.697 27.438 389 27.17 C 387.404 26.558 385.709 26.25 384 26.26 C 382.535 26.235 381.075 26.451 379.68 26.9 C 378.554 27.263 377.511 27.844 376.61 28.61 C 375.822 29.301 375.197 30.159 374.78 31.12 C 374.373 32.067 374.165 33.089 374.17 34.12 C 374.141 35.11 374.311 36.096 374.67 37.02 C 374.982 37.763 375.429 38.441 375.99 39.02 C 376.533 39.57 377.161 40.03 377.85 40.38 C 378.535 40.737 379.243 41.048 379.97 41.31 C 380.69 41.56 381.4 41.79 382.09 41.99 C 382.723 42.168 383.344 42.385 383.95 42.64 C 384.435 42.837 384.882 43.118 385.27 43.47 C 385.606 43.784 385.789 44.23 385.77 44.69 C 385.771 44.961 385.716 45.23 385.61 45.48 C 385.486 45.749 385.305 45.987 385.08 46.18 C 384.784 46.411 384.444 46.578 384.08 46.67 C 383.604 46.8 383.113 46.86 382.62 46.85 C 381.942 46.864 381.266 46.766 380.62 46.56 C 380.137 46.392 379.669 46.185 379.22 45.94 L 378.1 45.31 C 377.745 45.115 377.345 45.015 376.94 45.02 C 376.544 45.005 376.153 45.102 375.81 45.3 C 375.511 45.496 375.258 45.756 375.07 46.06 L 373.34 48.79 C 373.869 49.257 374.45 49.663 375.07 50 C 375.767 50.401 376.5 50.736 377.26 51 C 378.063 51.275 378.886 51.492 379.72 51.65 C 380.557 51.809 381.408 51.889 382.26 51.89 C 383.783 51.913 385.3 51.704 386.76 51.27 C 387.958 50.908 389.073 50.314 390.04 49.52 C 390.906 48.79 391.59 47.869 392.04 46.83 C 392.492 45.75 392.72 44.59 392.71 43.42 C 392.729 42.532 392.562 41.65 392.22 40.83 C 391.909 40.139 391.464 39.517 390.91 39 C 390.358 38.489 389.735 38.062 389.06 37.73 C 388.377 37.385 387.672 37.084 386.95 36.83 C 386.23 36.57 385.53 36.34 384.84 36.13 C 384.212 35.952 383.598 35.731 383 35.47 C 382.521 35.28 382.078 35.01 381.69 34.67 C 381.366 34.377 381.187 33.957 381.2 33.52 C 381.177 32.925 381.46 32.359 381.95 32.02 C 382.601 31.622 383.358 31.433 384.12 31.48 C 384.711 31.473 385.301 31.55 385.87 31.71 C 386.339 31.847 386.8 32.011 387.25 32.2 L 388.39 32.69 C 388.724 32.839 389.085 32.917 389.45 32.92 C 389.736 32.933 390.019 32.867 390.27 32.73 C 390.523 32.563 390.735 32.341 390.89 32.08 L 392.6 29.46 L 392.6 29.46 Z  M 347.42 26.63 L 347.42 42.41 C 347.409 43.695 347.598 44.973 347.98 46.2 C 348.312 47.301 348.867 48.322 349.61 49.2 C 350.329 50.06 351.236 50.744 352.26 51.2 C 353.399 51.691 354.63 51.933 355.87 51.91 C 356.61 51.915 357.347 51.838 358.07 51.68 C 358.716 51.537 359.346 51.329 359.95 51.06 C 360.532 50.783 361.085 50.448 361.6 50.06 C 362.119 49.671 362.613 49.25 363.08 48.8 L 363.54 50.24 C 363.777 51.033 364.535 51.553 365.36 51.49 L 369.97 51.49 L 369.97 26.61 L 362.53 26.61 L 362.53 44.33 C 361.916 44.902 361.218 45.378 360.46 45.74 C 359.745 46.081 358.962 46.255 358.17 46.25 C 357.236 46.321 356.322 45.951 355.7 45.25 C 355.093 44.429 354.795 43.419 354.86 42.4 L 354.86 26.61 L 347.42 26.63 L 347.42 26.63 Z  M 339.18 42.63 C 338.952 42.732 338.74 42.867 338.55 43.03 C 338.105 43.402 337.63 43.737 337.13 44.03 C 336.659 44.309 336.159 44.537 335.64 44.71 C 335.092 44.895 334.525 45.019 333.95 45.08 C 333.286 45.159 332.618 45.196 331.95 45.19 C 330.715 45.197 329.492 44.945 328.36 44.45 C 327.235 43.948 326.232 43.207 325.42 42.28 C 324.532 41.251 323.853 40.059 323.42 38.77 C 322.909 37.229 322.663 35.613 322.69 33.99 C 322.666 32.419 322.913 30.857 323.42 29.37 C 323.85 28.077 324.53 26.881 325.42 25.85 C 326.285 24.884 327.354 24.122 328.55 23.62 C 329.816 23.09 331.177 22.825 332.55 22.84 C 333.294 22.834 334.038 22.898 334.77 23.03 C 335.335 23.142 335.89 23.299 336.43 23.5 C 336.853 23.666 337.261 23.866 337.65 24.1 L 338.6 24.7 C 338.89 24.88 339.16 25.04 339.41 25.17 C 339.664 25.297 339.945 25.362 340.23 25.36 C 340.585 25.38 340.937 25.282 341.23 25.08 C 341.463 24.905 341.672 24.7 341.85 24.47 L 344.58 20.8 C 343.9 20.094 343.146 19.463 342.33 18.92 C 341.455 18.341 340.523 17.852 339.55 17.46 C 338.501 17.024 337.413 16.689 336.3 16.46 C 335.078 16.223 333.835 16.105 332.59 16.11 C 330.059 16.079 327.545 16.527 325.18 17.43 C 320.839 19.074 317.386 22.461 315.66 26.77 C 314.749 29.053 314.294 31.492 314.32 33.95 C 314.297 36.37 314.693 38.775 315.49 41.06 C 316.223 43.153 317.369 45.078 318.86 46.72 C 320.358 48.332 322.181 49.607 324.21 50.46 C 326.471 51.4 328.902 51.863 331.35 51.82 C 333.923 51.88 336.481 51.403 338.86 50.42 C 340.947 49.503 342.767 48.072 344.15 46.26 L 340.94 42.87 C 340.783 42.711 340.596 42.585 340.39 42.5 C 340.204 42.431 340.008 42.394 339.81 42.39 C 339.571 42.393 339.336 42.448 339.12 42.55 M 287.58 45.75 C 287.067 45.481 286.64 45.072 286.35 44.57 C 285.96 43.894 285.687 43.157 285.54 42.39 C 285.334 41.302 285.24 40.197 285.26 39.09 C 285.239 37.92 285.36 36.751 285.62 35.61 C 285.808 34.775 286.146 33.982 286.62 33.27 C 286.998 32.71 287.515 32.259 288.12 31.96 C 288.713 31.689 289.358 31.552 290.01 31.56 C 290.71 31.554 291.406 31.68 292.06 31.93 C 292.764 32.218 293.394 32.662 293.9 33.23 L 293.9 43.79 C 293.595 44.151 293.261 44.485 292.9 44.79 C 292.581 45.072 292.228 45.314 291.85 45.51 C 291.466 45.708 291.06 45.859 290.64 45.96 C 290.157 46.064 289.664 46.115 289.17 46.11 C 288.613 46.118 288.061 45.994 287.56 45.75 M 301.38 51.46 L 301.38 15.56 L 293.95 15.56 L 293.95 28.15 C 293.226 27.538 292.413 27.039 291.54 26.67 C 290.504 26.272 289.4 26.081 288.29 26.11 C 286.785 26.1 285.299 26.442 283.95 27.11 C 282.643 27.762 281.493 28.69 280.58 29.83 C 279.606 31.059 278.87 32.46 278.41 33.96 C 277.885 35.633 277.626 37.377 277.64 39.13 C 277.615 40.947 277.847 42.758 278.33 44.51 C 278.714 45.944 279.351 47.299 280.21 48.51 C 280.956 49.551 281.931 50.406 283.06 51.01 C 284.172 51.585 285.408 51.88 286.66 51.87 C 287.454 51.877 288.246 51.793 289.02 51.62 C 289.712 51.456 290.382 51.214 291.02 50.9 C 291.645 50.591 292.235 50.215 292.78 49.78 C 293.336 49.34 293.857 48.859 294.34 48.34 L 294.92 50.24 C 295.016 50.622 295.251 50.954 295.58 51.17 C 295.951 51.399 296.386 51.501 296.82 51.46 L 301.38 51.46 L 301.38 51.46 Z  M 265.89 51.46 L 273.33 51.46 L 273.33 15.56 L 265.89 15.56 L 265.89 51.46 L 265.89 51.46 Z  M 253.28 51.46 L 253.28 36.22 Q 254.96 33.12 257.88 33.11 C 258.345 33.101 258.811 33.134 259.27 33.21 C 259.598 33.284 259.934 33.32 260.27 33.32 C 260.541 33.332 260.809 33.262 261.04 33.12 C 261.255 32.943 261.392 32.687 261.42 32.41 L 262.42 26.94 C 261.629 26.367 260.666 26.081 259.69 26.13 C 258.352 26.131 257.049 26.559 255.97 27.35 C 254.751 28.262 253.71 29.391 252.9 30.68 L 252.49 28.36 C 252.437 28.082 252.364 27.807 252.27 27.54 C 252.188 27.33 252.053 27.144 251.88 27 C 251.696 26.859 251.485 26.757 251.26 26.7 C 250.958 26.635 250.649 26.604 250.34 26.61 L 245.82 26.61 L 245.82 51.46 L 253.28 51.46 L 253.28 51.46 Z  M 225.28 44.46 C 223.637 40.977 223.637 36.943 225.28 33.46 C 226.162 32.225 227.627 31.542 229.14 31.66 C 230.627 31.55 232.061 32.235 232.91 33.46 C 234.527 36.948 234.527 40.972 232.91 44.46 C 232.064 45.691 230.629 46.38 229.14 46.27 C 227.624 46.39 226.157 45.702 225.28 44.46 Z  M 223.94 27.04 C 220.878 28.156 218.453 30.551 217.3 33.6 C 216.666 35.298 216.355 37.098 216.38 38.91 C 216.355 40.738 216.667 42.555 217.3 44.27 C 218.45 47.334 220.872 49.749 223.94 50.89 C 225.603 51.508 227.366 51.814 229.14 51.79 C 230.898 51.812 232.644 51.507 234.29 50.89 C 237.342 49.746 239.744 47.329 240.87 44.27 C 241.511 42.557 241.827 40.739 241.8 38.91 C 241.827 37.097 241.512 35.296 240.87 33.6 C 239.74 30.557 237.336 28.16 234.29 27.04 C 232.642 26.431 230.897 26.13 229.14 26.15 C 227.367 26.128 225.605 26.43 223.94 27.04 Z  M 176.01 51.46 L 183.35 51.46 L 190.02 29.8 C 190.13 29.47 190.25 29.1 190.37 28.7 C 190.49 28.3 190.6 27.87 190.71 27.43 C 190.82 27.87 190.94 28.3 191.06 28.7 C 191.18 29.1 191.3 29.47 191.41 29.8 L 197.98 51.46 L 205.32 51.46 L 216.11 16.52 L 209.73 16.52 C 209.112 16.502 208.505 16.684 208 17.04 C 207.563 17.332 207.242 17.767 207.09 18.27 L 202.3 36.49 Q 202.07 37.33 201.88 38.29 C 201.74 38.93 201.61 39.6 201.48 40.29 C 201.34 39.58 201.17 38.9 200.98 38.29 C 200.79 37.68 200.6 37.06 200.42 36.5 L 194.82 18.29 C 194.664 17.765 194.332 17.309 193.88 17 C 193.361 16.672 192.753 16.512 192.14 16.54 L 189.74 16.54 C 189.123 16.524 188.517 16.714 188.02 17.08 C 187.595 17.378 187.273 17.801 187.1 18.29 L 181.44 36.51 C 181.27 37.1 181.08 37.73 180.89 38.39 C 180.7 39.05 180.52 39.76 180.36 40.52 C 180.285 39.81 180.165 39.105 180 38.41 C 179.84 37.73 179.68 37.1 179.52 36.51 L 174.73 18.29 C 174.588 17.766 174.257 17.313 173.8 17.02 C 173.277 16.681 172.662 16.513 172.04 16.54 L 165.22 16.54 L 176.01 51.46 L 176.01 51.46 Z " fill="rgb(0,139,199)"/><linearGradient id="_lgradient_0" x1="0.5" y1="0.9999999999999998" x2="0.5000000000000001" y2="-0.8131317950581951" gradientTransform="matrix(146.18,0,0,88.77,0,47.79)" gradientUnits="userSpaceOnUse"><stop offset="0%" stop-opacity="1" style="stop-color:rgb(0,100,177)"/><stop offset="100%" stop-opacity="1" style="stop-color:rgb(0,174,239)"/></linearGradient><path d=" M 126.5 47.79 C 126.5 77.078 102.758 100.82 73.47 100.82 C 44.182 100.82 20.44 77.078 20.44 47.79 L 0 47.79 C 0.14 83.71 25 113.17 58.48 119.7 C 63.03 120.59 71.48 123.98 73.55 136.56 C 75.75 123.98 83.55 120.27 87.67 119.49 C 120.94 113.25 146.04 83.34 146.18 47.79 L 126.5 47.79 L 126.5 47.79 Z " fill="url(#_lgradient_0)"/><linearGradient id="_lgradient_1" x1="0.49987705925743775" y1="0.04420443157777565" x2="0.4998770592574376" y2="0.9409865271127993" gradientTransform="matrix(40.67,0,0,89.81,28.07,0.01)" gradientUnits="userSpaceOnUse"><stop offset="0%" stop-opacity="1" style="stop-color:rgb(109,110,113)"/><stop offset="100%" stop-opacity="1" style="stop-color:rgb(199,200,202)"/></linearGradient><path d=" M 28.07 44.92 C 28.079 68.112 45.662 87.523 68.74 89.82 L 68.74 68.34 C 57.35 66.364 49.034 56.48 49.034 44.92 C 49.034 33.36 57.35 23.476 68.74 21.5 L 68.74 0.01 C 45.66 2.311 28.079 21.726 28.07 44.92 Z " fill="url(#_lgradient_1)"/><linearGradient id="_lgradient_2" x1="0.49987705925743775" y1="0.04420443157777565" x2="0.4998770592574376" y2="0.9409865271127993" gradientTransform="matrix(40.67,0,0,89.81,28.07,0.01)" gradientUnits="userSpaceOnUse"><stop offset="0%" stop-opacity="1" style="stop-color:rgb(109,110,113)"/><stop offset="100%" stop-opacity="1" style="stop-color:rgb(199,200,202)"/></linearGradient><path d=" M 28.07 44.92 C 28.079 68.112 45.662 87.523 68.74 89.82 L 68.74 68.34 C 57.35 66.364 49.034 56.48 49.034 44.92 C 49.034 33.36 57.35 23.476 68.74 21.5 L 68.74 0.01 C 45.66 2.311 28.079 21.726 28.07 44.92 Z " fill="url(#_lgradient_2)"/><linearGradient id="_lgradient_3" x1="0.49987705925743775" y1="0.04420443157777565" x2="0.4998770592574376" y2="0.9409865271127993" gradientTransform="matrix(40.67,0,0,89.81,28.07,0.01)" gradientUnits="userSpaceOnUse"><stop offset="1.7391304347826086%" stop-opacity="1" style="stop-color:rgb(109,110,113)"/><stop offset="100%" stop-opacity="1" style="stop-color:rgb(199,200,202)"/></linearGradient><path d=" M 28.07 44.92 C 28.079 68.112 45.662 87.523 68.74 89.82 L 68.74 68.34 C 57.35 66.364 49.034 56.48 49.034 44.92 C 49.034 33.36 57.35 23.476 68.74 21.5 L 68.74 0.01 C 45.66 2.311 28.079 21.726 28.07 44.92 Z " fill="url(#_lgradient_3)"/><linearGradient id="_lgradient_4" x1="0.4999999999999999" y1="0" x2="0.49999999999999994" y2="1" gradientTransform="matrix(40.867,0,0,89.82,77.23,0)" gradientUnits="userSpaceOnUse"><stop offset="2.1739130434782608%" stop-opacity="1" style="stop-color:rgb(109,110,113)"/><stop offset="98.26086956521739%" stop-opacity="1" style="stop-color:rgb(199,200,202)"/></linearGradient><path d=" M 77.23 21.46 C 88.724 23.335 97.164 33.264 97.164 44.91 C 97.164 56.556 88.724 66.485 77.23 68.36 L 77.23 89.82 C 100.397 87.631 118.097 68.18 118.097 44.91 C 118.097 21.64 100.397 2.189 77.23 0 L 77.23 21.46 L 77.23 21.46 Z " fill="url(#_lgradient_4)"/></g></g></svg>