<?xml version="1.0" encoding="UTF-8" standalone="no"?><!-- Generator: Gravit.io --><svg xmlns="http://www.w3.org/2000/svg" xmlns:xlink="http://www.w3.org/1999/xlink" style="isolation:isolate" viewBox="0 0 199.12 186.07" width="199.12pt" height="186.07pt"><defs><clipPath id="_clipPath_IHTecvAuhHGUsxIoBa7xKj43aMr0xZWD"><rect width="199.12" height="186.07"/></clipPath></defs><g clip-path="url(#_clipPath_IHTecvAuhHGUsxIoBa7xKj43aMr0xZWD)"><clipPath id="_clipPath_UOb62fmKRFFCMKVXOoDoQibSXPrZ3dcz"><rect x="0" y="0" width="199.12" height="186.07" transform="matrix(1,0,0,1,0,0)" fill="rgb(255,255,255)"/></clipPath><g clip-path="url(#_clipPath_UOb62fmKRFFCMKVXOoDoQibSXPrZ3dcz)"><g><linearGradient id="_lgradient_5" x1="0.5000000000000001" y1="0.9995041322314051" x2="0.5000000000000003" y2="0.2156612924365463" gradientTransform="matrix(199.12,0,0,121,0,65.07)" gradientUnits="userSpaceOnUse"><stop offset="0%" stop-opacity="1" style="stop-color:rgb(0,100,177)"/><stop offset="100%" stop-opacity="1" style="stop-color:rgb(0,174,239)"/></linearGradient><path d=" M 172.3 65.07 C 171.62 104.6 139.57 136.44 100.07 136.44 C 60.57 136.44 28.53 104.62 27.84 65.07 L 0 65.07 C 0.19 113.99 34.11 154.13 79.66 163.07 C 85.85 164.27 97.34 168.89 100.18 186.07 C 103.18 168.93 113.76 163.88 119.41 162.82 C 164.73 154.31 198.93 113.57 199.12 65.15 L 172.3 65.07 L 172.3 65.07 Z " fill="url(#_lgradient_5)"/><linearGradient id="_lgradient_6" x1="0.4999999999999184" y1="0.04414289217689826" x2="0.4999999999999182" y2="1.2528974222156948" gradientTransform="matrix(55.4,0,0,122.33,38.23,0.01)" gradientUnits="userSpaceOnUse"><stop offset="0%" stop-opacity="1" style="stop-color:rgb(109,110,113)"/><stop offset="100%" stop-opacity="1" style="stop-color:rgb(199,200,202)"/></linearGradient><path d=" M 38.23 61.17 C 38.239 92.765 62.191 119.211 93.63 122.34 L 93.63 93.07 C 78.123 90.37 66.805 76.91 66.805 61.17 C 66.805 45.43 78.123 31.97 93.63 29.27 L 93.63 0.01 C 62.194 3.139 38.244 29.579 38.23 61.17 Z " fill="url(#_lgradient_6)"/><linearGradient id="_lgradient_7" x1="0.4999999999999184" y1="0.04414289217689826" x2="0.4999999999999182" y2="1.2528974222156948" gradientTransform="matrix(-55.4,0,0,122.33,160.843,0.01)" gradientUnits="userSpaceOnUse"><stop offset="0%" stop-opacity="1" style="stop-color:rgb(109,110,113)"/><stop offset="100%" stop-opacity="1" style="stop-color:rgb(199,200,202)"/></linearGradient><path d=" M 160.843 61.17 C 160.834 92.765 136.882 119.211 105.443 122.34 L 105.443 93.07 C 120.95 90.37 132.268 76.91 132.268 61.17 C 132.268 45.43 120.95 31.97 105.443 29.27 L 105.443 0.01 C 136.879 3.139 160.829 29.579 160.843 61.17 Z " fill="url(#_lgradient_7)"/></g></g></g></svg>