<?xml version="1.0" encoding="UTF-8" standalone="no"?>
<svg
   xmlns:dc="http://purl.org/dc/elements/1.1/"
   xmlns:cc="http://creativecommons.org/ns#"
   xmlns:rdf="http://www.w3.org/1999/02/22-rdf-syntax-ns#"
   xmlns:svg="http://www.w3.org/2000/svg"
   xmlns="http://www.w3.org/2000/svg"
   xmlns:xlink="http://www.w3.org/1999/xlink"
   xmlns:sodipodi="http://sodipodi.sourceforge.net/DTD/sodipodi-0.dtd"
   xmlns:inkscape="http://www.inkscape.org/namespaces/inkscape"
   height="136.58"
   width="624.73505"
   inkscape:version="1.0 (4035a4f, 2020-05-01)"
   sodipodi:docname="WCO_GTAS_header_brand.svg"
   version="1.1"
   viewBox="0 0 624.73505 136.58"
   data-name="Layer 1"
   id="Layer_1">
  <metadata
     id="metadata36">
    <rdf:RDF>
      <cc:Work
         rdf:about="">
        <dc:format>image/svg+xml</dc:format>
        <dc:type
           rdf:resource="http://purl.org/dc/dcmitype/StillImage" />
        <dc:title>WCO_acrH_EN_Col</dc:title>
      </cc:Work>
    </rdf:RDF>
  </metadata>
  <sodipodi:namedview
     fit-margin-bottom="0"
     fit-margin-right="0"
     fit-margin-left="0"
     fit-margin-top="0"
     inkscape:current-layer="Layer_1"
     inkscape:window-maximized="1"
     inkscape:window-y="23"
     inkscape:window-x="0"
     inkscape:cy="76.96938"
     inkscape:cx="422.37521"
     inkscape:zoom="1.3934466"
     inkscape:snap-global="true"
     inkscape:snap-text-baseline="false"
     inkscape:snap-to-guides="false"
     showgrid="false"
     id="namedview34"
     inkscape:window-height="1035"
     inkscape:window-width="1920"
     inkscape:pageshadow="2"
     inkscape:pageopacity="0"
     guidetolerance="10"
     gridtolerance="10"
     objecttolerance="10"
     borderopacity="1"
     bordercolor="#666666"
     pagecolor="#ffffff"
     inkscape:document-rotation="0" />
  <defs
     id="defs21">
    <linearGradient
       id="linearGradient879"
       inkscape:collect="always">
      <stop
         id="stop875"
         offset="0"
         style="stop-color:#07b9f7;stop-opacity:1;" />
      <stop
         id="stop877"
         offset="1"
         style="stop-color:#07b9f7;stop-opacity:0;" />
    </linearGradient>
    <linearGradient
       gradientTransform="translate(-143.53,-136.53)"
       gradientUnits="userSpaceOnUse"
       y2="184.34"
       x2="216.62"
       y1="273.10999"
       x1="216.62"
       id="New_Gradient_Swatch_3">
      <stop
         id="stop10"
         stop-color="#0064b1"
         offset="0" />
      <stop
         id="stop12"
         stop-color="#00aeef"
         offset="1" />
    </linearGradient>
    <linearGradient
       gradientUnits="userSpaceOnUse"
       y2="221.07001"
       x2="191.92999"
       y1="140.53"
       x1="191.92999"
       id="New_Gradient_Swatch_2">
      <stop
         id="stop15"
         stop-color="#6d6e71"
         offset="0" />
      <stop
         id="stop17"
         stop-color="#c7c8ca"
         offset="1" />
    </linearGradient>
    <linearGradient
       gradientTransform="translate(-143.53,-136.53)"
       xlink:href="#New_Gradient_Swatch_2"
       y2="221.39"
       x2="241.2"
       y1="137.05"
       x1="241.2"
       id="New_Gradient_Swatch_2-2" />
    <radialGradient
       gradientUnits="userSpaceOnUse"
       gradientTransform="matrix(1,0,0,0.27108266,0,149.69163)"
       r="70.175781"
       fy="205.3616"
       fx="614.1507"
       cy="205.3616"
       cx="614.1507"
       id="radialGradient881"
       xlink:href="#linearGradient879"
       inkscape:collect="always" />
    <linearGradient
       gradientTransform="translate(-143.53,-136.53)"
       y2="221.07001"
       x2="191.92999"
       y1="140.53"
       x1="191.92999"
       gradientUnits="userSpaceOnUse"
       id="linearGradient922"
       xlink:href="#New_Gradient_Swatch_2"
       inkscape:collect="always" />
  </defs>
  <title
     id="title23">WCO_acrH_EN_Col</title>
  <path
     id="path25"
     fill="#008bc7"
     d="m 403.38,79.56 a 19,19 0 0 1 -3.71,6.75 15.79,15.79 0 0 1 -5.91,4.21 20.63,20.63 0 0 1 -8,1.45 20.87,20.87 0 0 1 -8,-1.45 15.74,15.74 0 0 1 -5.94,-4.21 19,19 0 0 1 -3.7,-6.75 31.87,31.87 0 0 1 0,-18 19,19 0 0 1 3.7,-6.74 16,16 0 0 1 5.94,-4.24 20.68,20.68 0 0 1 8,-1.47 20.44,20.44 0 0 1 8,1.47 16.09,16.09 0 0 1 5.91,4.24 19,19 0 0 1 3.71,6.74 31.87,31.87 0 0 1 0,18 m 14.7,-22.48 a 32.36,32.36 0 0 0 -7.06,-10.87 33.11,33.11 0 0 0 -11,-7.25 37.13,37.13 0 0 0 -14.25,-2.64 37.53,37.53 0 0 0 -14.27,2.62 32.78,32.78 0 0 0 -11,7.23 32.09,32.09 0 0 0 -7.09,10.86 37.75,37.75 0 0 0 0,27.07 32,32 0 0 0 18.11,18.14 40.12,40.12 0 0 0 28.52,0 31.94,31.94 0 0 0 18,-18.14 37.61,37.61 0 0 0 0,-27 m -77.67,30 a 5.4,5.4 0 0 0 -1.2,0.76 19.36,19.36 0 0 1 -2.74,2 15.28,15.28 0 0 1 -2.85,1.31 16,16 0 0 1 -3.25,0.72 35,35 0 0 1 -3.87,0.2 16.88,16.88 0 0 1 -6.9,-1.42 16.26,16.26 0 0 1 -5.64,-4.17 20.22,20.22 0 0 1 -3.82,-6.74 27.54,27.54 0 0 1 -1.4,-9.16 26.37,26.37 0 0 1 1.4,-8.89 19.86,19.86 0 0 1 3.91,-6.74 16.83,16.83 0 0 1 6,-4.28 19.41,19.41 0 0 1 7.73,-1.5 21.31,21.31 0 0 1 4.26,0.37 18.44,18.44 0 0 1 3.18,0.9 13.43,13.43 0 0 1 2.34,1.15 l 1.82,1.15 c 0.56,0.35 1.08,0.65 1.57,0.9 a 3.5,3.5 0 0 0 1.56,0.36 3.09,3.09 0 0 0 2,-0.55 6.29,6.29 0 0 0 1.19,-1.17 l 5.25,-7 a 25.73,25.73 0 0 0 -4.33,-3.62 29.32,29.32 0 0 0 -5.34,-2.8 33.73,33.73 0 0 0 -6.23,-1.84 35.91,35.91 0 0 0 -7.11,-0.67 38.57,38.57 0 0 0 -14.23,2.53 31.76,31.76 0 0 0 -18.27,17.93 36,36 0 0 0 -2.58,13.79 40.16,40.16 0 0 0 2.25,13.64 31.78,31.78 0 0 0 6.47,10.87 29.76,29.76 0 0 0 10.27,7.18 34.42,34.42 0 0 0 13.69,2.6 35.56,35.56 0 0 0 14.43,-2.69 25.62,25.62 0 0 0 10.15,-8 l -6.17,-6.49 a 2.83,2.83 0 0 0 -1.05,-0.71 3.07,3.07 0 0 0 -2.44,0.09 m -123.95,17.01 h 14.1 l 12.8,-41.56 c 0.22,-0.65 0.44,-1.35 0.67,-2.12 0.23,-0.77 0.45,-1.58 0.67,-2.44 0.21,0.86 0.43,1.67 0.66,2.44 0.23,0.77 0.46,1.47 0.67,2.12 l 12.61,41.56 h 14.09 l 20.73,-67.07 h -12.26 a 5.46,5.46 0 0 0 -3.32,1 4.3,4.3 0 0 0 -1.74,2.34 l -9.21,35 q -0.42,1.6 -0.81,3.45 c -0.26,1.23 -0.51,2.52 -0.76,3.87 a 38.83,38.83 0 0 0 -1,-3.89 c -0.37,-1.21 -0.72,-2.36 -1.06,-3.43 l -10.77,-35 a 4.67,4.67 0 0 0 -1.82,-2.46 5.79,5.79 0 0 0 -3.34,-0.9 h -4.6 a 5.26,5.26 0 0 0 -3.29,1 4.78,4.78 0 0 0 -1.77,2.32 l -10.87,35 c -0.34,1.13 -0.69,2.34 -1.06,3.61 -0.37,1.27 -0.7,2.63 -1,4.08 a 31.06,31.06 0 0 0 -0.69,-4.05 c -0.31,-1.29 -0.61,-2.51 -0.92,-3.64 l -9.21,-35 a 4.19,4.19 0 0 0 -1.77,-2.44 5.9,5.9 0 0 0 -3.38,-0.92 h -13.05 z" />
  <path
     style="fill:url(#New_Gradient_Swatch_3)"
     id="path27"
     fill="url(#New_Gradient_Swatch_3)"
     d="m 126.47,47.81 a 53,53 0 0 1 -106,0 H 0 c 0.14,35.92 25,65.38 58.48,71.91 4.54,0.89 13,4.28 15.06,16.86 2.21,-12.58 10,-16.29 14.12,-17.07 33.28,-6.24 58.38,-36.15 58.52,-71.7 z" />
  <path
     style="fill:url(#linearGradient922)"
     id="path29"
     fill="url(#New_Gradient_Swatch_2)"
     d="m 28.07,44.94 a 45.14,45.14 0 0 0 40.67,44.9 V 68.36 a 23.77,23.77 0 0 1 0,-46.84 V 0.03 A 45.15,45.15 0 0 0 28.07,44.94" />
  <path
     style="fill:url(#New_Gradient_Swatch_2-2)"
     id="path31"
     fill="url(#New_Gradient_Swatch_2-2)"
     d="m 77.23,21.47 a 23.76,23.76 0 0 1 0,46.9 V 89.83 A 45.11,45.11 0 0 0 77.23,0 Z" />
  <text
     transform="matrix(1.5208518,0,0,1.7597275,-386.86023,-278.82331)"
     id="text40"
     y="216.72879"
     x="543.97491"
     style="font-style:normal;font-variant:normal;font-weight:bold;font-stretch:normal;font-size:45.6416px;line-height:0;font-family:Lato;-inkscape-font-specification:'Lato Bold';white-space:pre;inline-size:0;mix-blend-mode:normal;fill:#008bc7;fill-opacity:1;stroke:none;stroke-width:1.2;stroke-miterlimit:4;stroke-dasharray:none"
     xml:space="preserve"><tspan
       style="font-style:normal;font-variant:normal;font-weight:bold;font-stretch:normal;font-size:45.6416px;line-height:1.25;font-family:Lato;-inkscape-font-specification:'Lato Bold';fill:#008bc7;fill-opacity:1;stroke-width:1.2;stroke-miterlimit:4;stroke-dasharray:none"
       y="216.72879"
       x="543.97491"
       id="tspan38"> <tspan
   id="tspan908"
   style="font-style:normal;font-variant:normal;font-weight:bold;font-stretch:normal;font-size:45.6416px;font-family:Lato;-inkscape-font-specification:'Lato Bold';stroke-width:1.2;stroke-miterlimit:4;stroke-dasharray:none;paint-order:stroke fill markers">GTAS</tspan></tspan></text>
  <text
     transform="scale(0.55064412,1.816055)"
     id="text926"
     y="53.4202"
     x="779.96661"
     style="font-style:normal;font-variant:normal;font-weight:normal;font-stretch:normal;font-size:34.7347px;line-height:1.25;font-family:sans-serif;-inkscape-font-specification:sans-serif;fill:#018bc7;fill-opacity:1;stroke-width:0.814092"
     xml:space="preserve"><tspan
       style="font-style:normal;font-variant:normal;font-weight:normal;font-stretch:normal;font-family:sans-serif;-inkscape-font-specification:sans-serif;fill:#018bc7;fill-opacity:1;stroke-width:0.814092"
       sodipodi:role="line"
       y="53.4202"
       x="779.96661"
       id="tspan924">|</tspan></text>
</svg>
