<?xml version="1.0"?>
<svg width="200" height="200" xmlns="http://www.w3.org/2000/svg" xmlns:xlink="http://www.w3.org/1999/xlink">
 <defs>
  <linearGradient y2="0" x2="0.500176" y1="0.999339" x1="0.500176" id="New_Gradient_Swatch_3">
   <stop stop-color="#0064b1" offset="0"/>
   <stop stop-color="#00aeef" offset="1"/>
  </linearGradient>
  <linearGradient y2="0.940975" x2="0.5" y1="0.044065" x1="0.5" id="New_Gradient_Swatch_2">
   <stop stop-color="#6d6e71" offset="0"/>
   <stop stop-color="#c7c8ca" offset="1"/>
  </linearGradient>
  <linearGradient xlink:href="#New_Gradient_Swatch_2" y2="339.7" x2="349.07" y1="224.82" x1="349.07" id="New_Gradient_Swatch_2-2"/>
 </defs>
 <title>WCO_acrV_EN_Col</title>
 <g>
  <title>background</title>
  <rect fill="none" id="canvas_background" height="202" width="202" y="-1" x="-1"/>
 </g>
 <g>
  <title>Layer 1</title>
  <path id="svg_1" fill="#008bc7" d="m166.059998,238.110718a12.76,12.76 0 0 1 -2.519989,4.579956a10.72,10.72 0 0 1 -4,2.860016a15.53,15.53 0 0 1 -10.860016,0a10.74,10.74 0 0 1 -4,-2.860016a12.9,12.9 0 0 1 -2.509979,-4.579956a21.549999,21.549999 0 0 1 0,-12.190033a12.9,12.9 0 0 1 2.509979,-4.579987a10.77,10.77 0 0 1 4,-2.870026a15.24,15.24 0 0 1 10.860016,0a10.74,10.74 0 0 1 4,2.870026a12.76,12.76 0 0 1 2.519989,4.579987a21.780001,21.780001 0 0 1 0,12.190033m10,-15.27002a21.809999,21.809999 0 0 0 -12.26001,-12.300018a25.09,25.09 0 0 0 -9.669983,-1.789978a25.450001,25.450001 0 0 0 -9.690002,1.779999a21.610001,21.610001 0 0 0 -12.309998,12.329987a25.690001,25.690001 0 0 0 0,18.380035a21.700001,21.700001 0 0 0 12.300018,12.309967a27.07,27.07 0 0 0 19.359985,0a21.76,21.76 0 0 0 7.459991,-4.920013a22.25,22.25 0 0 0 4.800018,-7.389954a25.610001,25.610001 0 0 0 0,-18.350037m-54.62001,20.370056a3.31,3.31 0 0 0 -0.820007,0.509949a12.19,12.19 0 0 1 -1.860016,1.359985a9.92,9.92 0 0 1 -1.929993,0.890076a11.35,11.35 0 0 1 -2.209991,0.489929a23.290001,23.290001 0 0 1 -2.619995,0.140015a11.55,11.55 0 0 1 -4.690002,-1a11,11 0 0 1 -3.830017,-2.830017a13.68,13.68 0 0 1 -2.600006,-4.579956a18.9,18.9 0 0 1 -0.949982,-6.220032a18.08,18.08 0 0 1 0.949982,-6a13.67,13.67 0 0 1 2.660004,-4.580017a11.64,11.64 0 0 1 4.080017,-2.909973a13.32,13.32 0 0 1 5.25,-1a14.4,14.4 0 0 1 2.889984,0.25a12.51,12.51 0 0 1 2.160004,0.609985a9.82,9.82 0 0 1 1.589996,0.779999l1.240021,0.779999a12.23,12.23 0 0 0 1.059998,0.610016a2.3,2.3 0 0 0 1.059998,0.25a2.14,2.14 0 0 0 1.320007,-0.360016a4.72,4.72 0 0 0 0.809998,-0.799988l3.560013,-4.779999a16.92,16.92 0 0 0 -2.940018,-2.450012a19.73,19.73 0 0 0 -3.619995,-1.910004a23.540001,23.540001 0 0 0 -4.240021,-1.25a24.77,24.77 0 0 0 -4.829987,-0.449982a26.26,26.26 0 0 0 -9.649994,1.709991a22.129999,22.129999 0 0 0 -7.52002,4.820007a21.559999,21.559999 0 0 0 -4.889984,7.359985a24.34,24.34 0 0 0 -1.75,9.360016a27.32,27.32 0 0 0 1.529999,9.269989a21.379999,21.379999 0 0 0 4.389984,7.369995a20.110001,20.110001 0 0 0 7,4.880005a23.299999,23.299999 0 0 0 9.300018,1.77002a24.110001,24.110001 0 0 0 9.799988,-1.830017a17.42,17.42 0 0 0 6.89003,-5.419952l-4.190018,-4.410065a2.15,2.15 0 0 0 -0.720001,-0.48999a2.21,2.21 0 0 0 -0.75,-0.139923a2,2 0 0 0 -0.899994,0.20993m-86.000008,11.579987l9.560013,0l8.690002,-28.22998c0.149994,-0.440002 0.299988,-0.910004 0.449982,-1.440002s0.309998,-1.070007 0.459991,-1.649994q0.210022,0.869995 0.450012,1.649994c0.160004,0.529999 0.309998,1 0.450012,1.440002l8.569969,28.22998l9.560028,0l14.069977,-45.539978l-8.319977,0a3.77,3.77 0 0 0 -2.25,0.679993a3,3 0 0 0 -1.180023,1.600006l-6.259979,23.750061c-0.180023,0.729919 -0.370026,1.509918 -0.540009,2.349915s-0.350006,1.710083 -0.519989,2.620056c-0.190002,-0.939972 -0.400024,-1.819977 -0.650024,-2.639984s-0.48999,-1.600067 -0.720001,-2.329987l-7.319969,-23.750061a3.12,3.12 0 0 0 -1.230011,-1.670013a3.92,3.92 0 0 0 -2.269989,-0.609985l-3.120026,0a3.58,3.58 0 0 0 -2.23999,0.699982a3.29,3.29 0 0 0 -1.199982,1.580017l-7.400024,23.690002q-0.350006,1.150024 -0.720001,2.459991t-0.690002,2.76004a23.190001,23.190001 0 0 0 -0.459991,-2.749969c-0.210007,-0.870026 -0.419998,-1.700043 -0.630005,-2.470062l-6.25,-23.75a2.9,2.9 0 0 0 -1.25,-1.670013a4,4 0 0 0 -2.300007,-0.619995l-8.87999,0l14.140003,45.609985z"/>
  <g id="svg_5">
   <path id="svg_2" fill="url(#New_Gradient_Swatch_3)" d="m172.774994,72.04422c-0.679993,39.531128 -32.730011,71.381134 -72.230026,71.381134s-71.549997,-31.850006 -72.22999,-71.381134l-27.869978,0c0.190003,48.931122 34.110004,89.061127 79.659996,98.001129c6.190002,1.209991 17.679993,5.829987 20.519989,23c3,-17.130005 13.580017,-22.179993 19.230011,-23.25c45.320023,-8.5 79.520004,-49.25 79.699997,-97.671127l-26.779999,-0.080002z"/>
   <path id="svg_3" fill="url(#New_Gradient_Swatch_2)" d="m38.704998,68.134125a61.490002,61.490002 0 0 0 55.399998,61.161224l0,-29.260277a32.380001,32.380001 0 0 1 0,-63.800823l0,-29.259597a61.48,61.48 0 0 0 -55.399998,61.159472"/>
   <path id="svg_4" fill="url(#New_Gradient_Swatch_2-2)" d="m105.675003,36.184242a32.369999,32.369999 0 0 1 0,63.890816l0,29.23027a61.450001,61.450001 0 0 0 0,-122.35068l0,29.229594z"/>
  </g>
 </g>
</svg>