<svg id="Layer_1" data-name="Layer 1" xmlns="http://www.w3.org/2000/svg" xmlns:xlink="http://www.w3.org/1999/xlink" viewBox="0 0 991.88 306.77"><defs><linearGradient id="New_Gradient_Swatch_3" x1="175.97" y1="208.94" x2="175.97" y2="137.7" gradientUnits="userSpaceOnUse"><stop offset="0" stop-color="#0064b1"/><stop offset="1" stop-color="#00aeef"/></linearGradient><linearGradient id="New_Gradient_Swatch_2" x1="156.16" y1="102.54" x2="156.16" y2="167.18" gradientUnits="userSpaceOnUse"><stop offset="0" stop-color="#6d6e71"/><stop offset="1" stop-color="#c7c8ca"/></linearGradient><linearGradient id="New_Gradient_Swatch_2-2" x1="195.69" y1="99.76" x2="195.69" y2="167.44" xlink:href="#New_Gradient_Swatch_2"/></defs><title>WCO_extH_ENFR_Col</title><path d="M873.49,166.36a7.84,7.84,0,0,0-1.29-1,8.69,8.69,0,0,0-1.61-.82,10.84,10.84,0,0,0-4-.73,10.64,10.64,0,0,0-3.46.51,7.31,7.31,0,0,0-2.45,1.37,5.65,5.65,0,0,0-1.47,2,6,6,0,0,0-.49,2.4,6.11,6.11,0,0,0,.4,2.32,5.16,5.16,0,0,0,1.06,1.63,5.78,5.78,0,0,0,1.49,1.09,14,14,0,0,0,1.69.74c.58.2,1.15.38,1.7.54a14.18,14.18,0,0,1,1.49.52,3.64,3.64,0,0,1,1,.66,1.31,1.31,0,0,1,.41,1,1.61,1.61,0,0,1-.14.64,1.56,1.56,0,0,1-.42.55,2.07,2.07,0,0,1-.77.4,4.36,4.36,0,0,1-1.17.14,5,5,0,0,1-1.62-.23,6.94,6.94,0,0,1-1.12-.5l-.89-.5a1.94,1.94,0,0,0-.93-.23,1.78,1.78,0,0,0-.91.22,2,2,0,0,0-.59.61l-1.38,2.18a7.15,7.15,0,0,0,1.38,1,10.88,10.88,0,0,0,1.76.78,13.75,13.75,0,0,0,2,.52,10.83,10.83,0,0,0,2,.19,11.88,11.88,0,0,0,3.59-.5,7.49,7.49,0,0,0,2.63-1.4,5.8,5.8,0,0,0,1.6-2.15,6.77,6.77,0,0,0,.54-2.72,5,5,0,0,0-.39-2.07,4.52,4.52,0,0,0-1.05-1.47,6.18,6.18,0,0,0-1.48-1,17.68,17.68,0,0,0-1.68-.72c-.58-.2-1.14-.39-1.69-.56a14.8,14.8,0,0,1-1.48-.52,3.77,3.77,0,0,1-1.05-.65,1.2,1.2,0,0,1-.39-.92,1.39,1.39,0,0,1,.61-1.2,3,3,0,0,1,1.73-.43,4.6,4.6,0,0,1,1.4.19,10.15,10.15,0,0,1,1.11.39l.91.39a2.12,2.12,0,0,0,.84.18,1.29,1.29,0,0,0,.66-.15,1.38,1.38,0,0,0,.49-.52Zm-24.12,1.86a2.91,2.91,0,0,1,1.08.86,3.23,3.23,0,0,1,.6,1.2,5.22,5.22,0,0,1,.18,1.38h-7.42a5,5,0,0,1,1.26-2.79,3.57,3.57,0,0,1,2.67-1,3.82,3.82,0,0,1,1.63.32m-5.84-3.64a9.17,9.17,0,0,0-3.09,2.13,9.33,9.33,0,0,0-2,3.12,10.6,10.6,0,0,0-.68,3.78,12.51,12.51,0,0,0,.8,4.65,9.39,9.39,0,0,0,2.17,3.33,9,9,0,0,0,3.2,2,11.25,11.25,0,0,0,3.92.68,18,18,0,0,0,2.14-.14,12.19,12.19,0,0,0,2.25-.52,10.58,10.58,0,0,0,2.18-1,8.6,8.6,0,0,0,2-1.72l-1.73-2.13a1.23,1.23,0,0,0-1.07-.51,2.21,2.21,0,0,0-1,.25l-1.07.55a8.86,8.86,0,0,1-1.34.56,5.5,5.5,0,0,1-1.78.25,4.56,4.56,0,0,1-3.17-1.12,5.66,5.66,0,0,1-1.51-3.62h11.47a1.76,1.76,0,0,0,.66-.1.82.82,0,0,0,.42-.34,1.82,1.82,0,0,0,.21-.67,8.38,8.38,0,0,0,0-1.1,10.52,10.52,0,0,0-.66-3.84,8.1,8.1,0,0,0-1.84-2.87,8,8,0,0,0-2.82-1.79,10.45,10.45,0,0,0-3.62-.61,10.08,10.08,0,0,0-4.09.79M822.8,184V169.81a7,7,0,0,1,1.65-1.13,4.17,4.17,0,0,1,1.84-.42,2.41,2.41,0,0,1,2,.82,3.45,3.45,0,0,1,.67,2.27V184h5.95V171.35a9.75,9.75,0,0,0-.45-3,6.62,6.62,0,0,0-1.3-2.4,5.93,5.93,0,0,0-2.12-1.57,6.93,6.93,0,0,0-2.89-.57,8.16,8.16,0,0,0-1.77.18,7.74,7.74,0,0,0-1.52.5,7,7,0,0,0-1.31.78,14,14,0,0,0-1.19,1L822,165.1a1.27,1.27,0,0,0-.52-.75,1.61,1.61,0,0,0-.93-.25h-3.69V184Zm-21.35-4a1.7,1.7,0,0,1-.56-1.44,1.93,1.93,0,0,1,.26-1,2.14,2.14,0,0,1,.93-.79,7.09,7.09,0,0,1,1.82-.58,14.86,14.86,0,0,1,2.94-.24v2.73a6.14,6.14,0,0,1-1.75,1.3,4.65,4.65,0,0,1-2,.41,2.67,2.67,0,0,1-1.63-.42m11.18,4V171.56a9.13,9.13,0,0,0-.53-3.15,7.28,7.28,0,0,0-1.55-2.48,7,7,0,0,0-2.45-1.63,8.65,8.65,0,0,0-3.26-.59,14,14,0,0,0-4.71.78,12.28,12.28,0,0,0-4,2.37l1.08,1.86a2.09,2.09,0,0,0,.68.74,1.79,1.79,0,0,0,1,.3,2.84,2.84,0,0,0,1.19-.23c.34-.16.68-.33,1-.52a7.46,7.46,0,0,1,1.2-.52,5.53,5.53,0,0,1,1.73-.23,2.64,2.64,0,0,1,2,.78,3.73,3.73,0,0,1,.72,2.55v.85a21.83,21.83,0,0,0-5.66.62,11.72,11.72,0,0,0-3.57,1.53,5.43,5.43,0,0,0-1.86,2,5,5,0,0,0-.54,2.17,6.24,6.24,0,0,0,.42,2.38,4.75,4.75,0,0,0,1.2,1.72,5,5,0,0,0,1.89,1.05,8.07,8.07,0,0,0,2.48.36,10.45,10.45,0,0,0,1.85-.16,7.2,7.2,0,0,0,1.57-.5,9.26,9.26,0,0,0,1.43-.82q.69-.48,1.44-1.11l.42,1.09a1.72,1.72,0,0,0,.72,1,2.74,2.74,0,0,0,1.28.23Zm-39.1-19.89v12.62a9.73,9.73,0,0,0,.45,3,6.79,6.79,0,0,0,1.3,2.4,5.84,5.84,0,0,0,2.12,1.58,6.93,6.93,0,0,0,2.89.57,8,8,0,0,0,1.76-.18,7.87,7.87,0,0,0,1.51-.5,7.15,7.15,0,0,0,1.31-.77,11.17,11.17,0,0,0,1.19-1l.37,1.15a1.39,1.39,0,0,0,1.45,1h3.69V164.1h-6v14.18a7.08,7.08,0,0,1-1.66,1.13,4.22,4.22,0,0,1-1.83.4,2.43,2.43,0,0,1-2-.81,3.48,3.48,0,0,1-.67-2.28V164.1Zm-16.09,14.34a10.37,10.37,0,0,1,0-8.8,3.46,3.46,0,0,1,3.09-1.44,3.38,3.38,0,0,1,3,1.44,10.46,10.46,0,0,1,0,8.8,3.39,3.39,0,0,1-3,1.45,3.47,3.47,0,0,1-3.09-1.45m-1.07-13.94a9.24,9.24,0,0,0-3.22,2,9.11,9.11,0,0,0-2.09,3.22,11.62,11.62,0,0,0-.74,4.25,11.82,11.82,0,0,0,.74,4.28,9.05,9.05,0,0,0,2.09,3.25,9.29,9.29,0,0,0,3.22,2.05,11.53,11.53,0,0,0,4.16.72,11.31,11.31,0,0,0,4.12-.72,8.89,8.89,0,0,0,5.27-5.3,11.82,11.82,0,0,0,.74-4.28,11.62,11.62,0,0,0-.74-4.25,9.2,9.2,0,0,0-2.07-3.22,9.07,9.07,0,0,0-3.2-2,11.53,11.53,0,0,0-4.12-.71,11.75,11.75,0,0,0-4.16.71m-20.3,14.95a2.49,2.49,0,0,1-1-.95,5.33,5.33,0,0,1-.64-1.74,12.49,12.49,0,0,1-.23-2.65,11.79,11.79,0,0,1,.28-2.78,5.69,5.69,0,0,1,.8-1.87,3.13,3.13,0,0,1,1.2-1.05,3.63,3.63,0,0,1,1.52-.32,4.54,4.54,0,0,1,1.64.3,3.85,3.85,0,0,1,1.46,1v8.44a6.68,6.68,0,0,1-.77.81,4.15,4.15,0,0,1-.84.57,3.74,3.74,0,0,1-1,.36,5.29,5.29,0,0,1-1.18.12,2.83,2.83,0,0,1-1.28-.28m11,4.54V155.27h-5.95v10.07a7.8,7.8,0,0,0-1.92-1.18,6.69,6.69,0,0,0-2.6-.45,7.74,7.74,0,0,0-3.48.79,8.09,8.09,0,0,0-2.69,2.18,10.18,10.18,0,0,0-1.74,3.3,13.39,13.39,0,0,0-.61,4.13,15.73,15.73,0,0,0,.54,4.31,10.16,10.16,0,0,0,1.51,3.19,6.66,6.66,0,0,0,2.28,2,6.18,6.18,0,0,0,2.88.69,8.63,8.63,0,0,0,1.89-.2,7.67,7.67,0,0,0,1.63-.58,7.31,7.31,0,0,0,1.41-.89,12.25,12.25,0,0,0,1.25-1.15l.46,1.51a1.28,1.28,0,0,0,.53.75,1.61,1.61,0,0,0,.93.25Zm-28.43-17.63a7.44,7.44,0,0,0-1.29-1,8.38,8.38,0,0,0-1.61-.82,10.84,10.84,0,0,0-4-.73,10.53,10.53,0,0,0-3.45.51,7.27,7.27,0,0,0-2.46,1.37,5.65,5.65,0,0,0-1.47,2,6.12,6.12,0,0,0-.48,2.4,5.92,5.92,0,0,0,.4,2.32,5.32,5.32,0,0,0,1.05,1.63,6,6,0,0,0,1.49,1.09,14.1,14.1,0,0,0,1.7.74c.57.2,1.14.38,1.7.54a14,14,0,0,1,1.48.52,3.7,3.7,0,0,1,1.06.66,1.3,1.3,0,0,1,.4,1,1.59,1.59,0,0,1-.13.64,1.48,1.48,0,0,1-.43.55,2,2,0,0,1-.76.4,4.36,4.36,0,0,1-1.17.14,4.88,4.88,0,0,1-1.62-.23,7.07,7.07,0,0,1-1.13-.5l-.89-.5a1.89,1.89,0,0,0-.93-.23,1.71,1.71,0,0,0-.9.22,2.06,2.06,0,0,0-.6.61l-1.38,2.18a7.82,7.82,0,0,0,1.38,1,11.29,11.29,0,0,0,1.76.78,13.89,13.89,0,0,0,2,.52,10.65,10.65,0,0,0,2,.19,12,12,0,0,0,3.6-.5,7.58,7.58,0,0,0,2.63-1.4,5.8,5.8,0,0,0,1.6-2.15,6.77,6.77,0,0,0,.53-2.72,5,5,0,0,0-.39-2.07,4.5,4.5,0,0,0-1-1.47,6.39,6.39,0,0,0-1.48-1,16.81,16.81,0,0,0-1.69-.72c-.58-.2-1.14-.39-1.69-.56a14.8,14.8,0,0,1-1.48-.52,3.57,3.57,0,0,1-1-.65,1.2,1.2,0,0,1-.39-.92,1.4,1.4,0,0,1,.6-1.2,3,3,0,0,1,1.74-.43,4.65,4.65,0,0,1,1.4.19,10,10,0,0,1,1.1.39l.91.39a2.13,2.13,0,0,0,.85.18,1.34,1.34,0,0,0,.66-.15,1.55,1.55,0,0,0,.49-.52Zm-24.12,1.86a3,3,0,0,1,1.09.86,3.37,3.37,0,0,1,.59,1.2,5.22,5.22,0,0,1,.19,1.38H689a5,5,0,0,1,1.27-2.79,3.57,3.57,0,0,1,2.66-1,3.79,3.79,0,0,1,1.63.32m-5.84-3.64a9.16,9.16,0,0,0-5,5.25,10.39,10.39,0,0,0-.68,3.78,12.51,12.51,0,0,0,.79,4.65,9.52,9.52,0,0,0,2.17,3.33,9,9,0,0,0,3.2,2,11.31,11.31,0,0,0,3.93.68,18,18,0,0,0,2.14-.14,12.28,12.28,0,0,0,2.24-.52,10.41,10.41,0,0,0,2.19-1,8.55,8.55,0,0,0,2-1.72l-1.72-2.13a1.25,1.25,0,0,0-1.08-.51,2.14,2.14,0,0,0-1,.25l-1.08.55a8.72,8.72,0,0,1-1.33.56,5.56,5.56,0,0,1-1.79.25,4.54,4.54,0,0,1-3.16-1.12,5.67,5.67,0,0,1-1.52-3.62h11.48a1.8,1.8,0,0,0,.66-.1.8.8,0,0,0,.41-.34,1.82,1.82,0,0,0,.21-.67,8.12,8.12,0,0,0,.06-1.1,10.52,10.52,0,0,0-.66-3.84,8.24,8.24,0,0,0-1.84-2.87,8,8,0,0,0-2.82-1.79,10.49,10.49,0,0,0-3.62-.61,10.13,10.13,0,0,0-4.1.79m-20,14.87a2.54,2.54,0,0,1-1-.95,5.56,5.56,0,0,1-.65-1.74,13.18,13.18,0,0,1-.23-2.65,11.75,11.75,0,0,1,.29-2.78,5.49,5.49,0,0,1,.8-1.87,3.13,3.13,0,0,1,1.2-1.05,3.58,3.58,0,0,1,1.51-.32,4.5,4.5,0,0,1,1.64.3,3.8,3.8,0,0,1,1.47,1v8.44a7.59,7.59,0,0,1-.78.81,4.09,4.09,0,0,1-.83.57,3.88,3.88,0,0,1-1,.36,5.35,5.35,0,0,1-1.18.12,2.9,2.9,0,0,1-1.29-.28m11,4.54V155.27H673.7v10.07a8.05,8.05,0,0,0-1.93-1.18,6.66,6.66,0,0,0-2.6-.45,7.73,7.73,0,0,0-3.47.79,8.13,8.13,0,0,0-2.7,2.18,10.36,10.36,0,0,0-1.73,3.3,13.39,13.39,0,0,0-.62,4.13,15.71,15.71,0,0,0,.55,4.31,10.16,10.16,0,0,0,1.51,3.19,6.66,6.66,0,0,0,2.28,2,6.12,6.12,0,0,0,2.88.69,8.63,8.63,0,0,0,1.89-.2,7.87,7.87,0,0,0,1.63-.58,8,8,0,0,0,1.41-.89,13.4,13.4,0,0,0,1.25-1.15l.46,1.51a1.27,1.27,0,0,0,.52.75,1.61,1.61,0,0,0,.93.25ZM644,168.22a3,3,0,0,1,1.09.86,3.37,3.37,0,0,1,.59,1.2,5.22,5.22,0,0,1,.18,1.38h-7.42a5,5,0,0,1,1.27-2.79,3.55,3.55,0,0,1,2.66-1,3.79,3.79,0,0,1,1.63.32m-5.84-3.64a9.16,9.16,0,0,0-5,5.25,10.39,10.39,0,0,0-.69,3.78,12.51,12.51,0,0,0,.8,4.65,9.39,9.39,0,0,0,2.17,3.33,9,9,0,0,0,3.2,2,11.27,11.27,0,0,0,3.93.68,18.12,18.12,0,0,0,2.14-.14,12.28,12.28,0,0,0,2.24-.52,10.41,10.41,0,0,0,2.19-1,8.55,8.55,0,0,0,2-1.72l-1.72-2.13a1.26,1.26,0,0,0-1.08-.51,2.21,2.21,0,0,0-1,.25l-1.07.55a8.72,8.72,0,0,1-1.33.56,5.6,5.6,0,0,1-1.79.25,4.54,4.54,0,0,1-3.16-1.12,5.61,5.61,0,0,1-1.52-3.62h11.47a1.86,1.86,0,0,0,.67-.1.8.8,0,0,0,.41-.34,1.82,1.82,0,0,0,.21-.67,8.12,8.12,0,0,0,.06-1.1,10.52,10.52,0,0,0-.66-3.84,8.26,8.26,0,0,0-1.85-2.87,7.77,7.77,0,0,0-2.82-1.79,10.44,10.44,0,0,0-3.61-.61,10.13,10.13,0,0,0-4.1.79M623,184h5.94V155.27H623Zm-15.6-4a1.7,1.7,0,0,1-.56-1.44,1.93,1.93,0,0,1,.26-1,2.2,2.2,0,0,1,.93-.79,7.05,7.05,0,0,1,1.83-.58,14.68,14.68,0,0,1,2.93-.24v2.73A6.14,6.14,0,0,1,611,180a4.65,4.65,0,0,1-2,.41,2.67,2.67,0,0,1-1.63-.42m11.18,4V171.56a8.9,8.9,0,0,0-.53-3.15,7.28,7.28,0,0,0-1.55-2.48A7,7,0,0,0,614,164.3a8.63,8.63,0,0,0-3.25-.59,13.94,13.94,0,0,0-4.71.78,12.08,12.08,0,0,0-4,2.37l1.07,1.86a2.19,2.19,0,0,0,.68.74,1.8,1.8,0,0,0,1,.3,2.9,2.9,0,0,0,1.19-.23c.33-.16.67-.33,1-.52a7.46,7.46,0,0,1,1.2-.52,5.53,5.53,0,0,1,1.73-.23,2.64,2.64,0,0,1,2,.78,3.73,3.73,0,0,1,.72,2.55v.85a21.83,21.83,0,0,0-5.66.62,11.83,11.83,0,0,0-3.57,1.53,5.43,5.43,0,0,0-1.86,2,5,5,0,0,0-.54,2.17,6.24,6.24,0,0,0,.43,2.38,4.52,4.52,0,0,0,1.2,1.72,4.83,4.83,0,0,0,1.89,1.05,8,8,0,0,0,2.47.36,10.37,10.37,0,0,0,1.85-.16,7.2,7.2,0,0,0,1.57-.5,9.26,9.26,0,0,0,1.43-.82q.69-.48,1.44-1.11l.42,1.09a1.81,1.81,0,0,0,.72,1,2.74,2.74,0,0,0,1.28.23Zm-20.85-26.7a3.56,3.56,0,0,0-2-1.86,3.69,3.69,0,0,0-1.41-.27,3.44,3.44,0,0,0-1.36.27,3.53,3.53,0,0,0-1.89,1.86,3.41,3.41,0,0,0-.28,1.36,3.3,3.3,0,0,0,.28,1.33,3.53,3.53,0,0,0,.77,1.1,3.83,3.83,0,0,0,1.12.74,3.28,3.28,0,0,0,1.36.28,3.51,3.51,0,0,0,1.41-.28,3.66,3.66,0,0,0,1.16-.74,3.43,3.43,0,0,0,.79-1.1,3.15,3.15,0,0,0,.29-1.33,3.25,3.25,0,0,0-.29-1.36M591.36,184h5.95V164.1h-5.95Zm-15.79-4.54a2.63,2.63,0,0,1-1-.95,5.83,5.83,0,0,1-.64-1.74,13.18,13.18,0,0,1-.23-2.65,11.75,11.75,0,0,1,.29-2.78,5.49,5.49,0,0,1,.8-1.87,3,3,0,0,1,1.19-1.05,3.63,3.63,0,0,1,1.52-.32,4.5,4.5,0,0,1,1.64.3,3.8,3.8,0,0,1,1.47,1v8.44a7.59,7.59,0,0,1-.78.81,4.09,4.09,0,0,1-.83.57,3.88,3.88,0,0,1-1,.36,5.35,5.35,0,0,1-1.18.12,2.87,2.87,0,0,1-1.29-.28m11,4.54V155.27h-6v10.07a8.05,8.05,0,0,0-1.93-1.18,6.69,6.69,0,0,0-2.6-.45,7.7,7.7,0,0,0-3.47.79,8.13,8.13,0,0,0-2.7,2.18,10.16,10.16,0,0,0-1.73,3.3,13.39,13.39,0,0,0-.62,4.13,15.34,15.34,0,0,0,.55,4.31,9.94,9.94,0,0,0,1.51,3.19,6.57,6.57,0,0,0,2.28,2,6.12,6.12,0,0,0,2.88.69,8.76,8.76,0,0,0,1.89-.2,7.87,7.87,0,0,0,1.63-.58,8,8,0,0,0,1.41-.89,12.15,12.15,0,0,0,1.24-1.15l.46,1.51a1.33,1.33,0,0,0,.53.75,1.61,1.61,0,0,0,.93.25Zm-34,0V169.81a7,7,0,0,1,1.65-1.13,4.14,4.14,0,0,1,1.84-.42,2.41,2.41,0,0,1,2,.82,3.51,3.51,0,0,1,.67,2.27V184h6V171.35a9.75,9.75,0,0,0-.45-3,6.78,6.78,0,0,0-1.3-2.4,5.93,5.93,0,0,0-2.12-1.57,6.93,6.93,0,0,0-2.89-.57,8.16,8.16,0,0,0-1.77.18,7.74,7.74,0,0,0-1.52.5,6.67,6.67,0,0,0-1.31.78,14,14,0,0,0-1.19,1l-.35-1.15a1.31,1.31,0,0,0-.52-.75,1.63,1.63,0,0,0-.94-.25h-3.68V184Zm-22.43-5.55a10.37,10.37,0,0,1,0-8.8,3.46,3.46,0,0,1,3.09-1.44,3.37,3.37,0,0,1,3,1.44,10.46,10.46,0,0,1,0,8.8,3.38,3.38,0,0,1-3,1.45,3.47,3.47,0,0,1-3.09-1.45m-1.06-13.94a8.89,8.89,0,0,0-5.32,5.25,11.62,11.62,0,0,0-.74,4.25,11.82,11.82,0,0,0,.74,4.28,9.19,9.19,0,0,0,2.09,3.25,9.33,9.33,0,0,0,3.23,2.05,12.26,12.26,0,0,0,8.28,0,8.91,8.91,0,0,0,5.26-5.3,11.82,11.82,0,0,0,.74-4.28,11.62,11.62,0,0,0-.74-4.25,9.2,9.2,0,0,0-2.07-3.22,9,9,0,0,0-3.19-2,12.43,12.43,0,0,0-8.28,0M497.32,184V169.6a5.35,5.35,0,0,1,1.35-1,3.26,3.26,0,0,1,1.53-.37,2.61,2.61,0,0,1,2,.69,3.39,3.39,0,0,1,.67,2.4V184h6V171.35a3.1,3.1,0,0,1,.8-2.29,2.72,2.72,0,0,1,2-.8c1.77,0,2.65,1,2.65,3.09V184h6V171.35a10.45,10.45,0,0,0-.46-3.19,6.32,6.32,0,0,0-1.36-2.38,5.71,5.71,0,0,0-2.21-1.48,8.37,8.37,0,0,0-3-.51,8.94,8.94,0,0,0-1.85.19,7.7,7.7,0,0,0-1.77.6,6.62,6.62,0,0,0-1.55,1,5.85,5.85,0,0,0-1.22,1.58,5.84,5.84,0,0,0-1.79-2.49,4.7,4.7,0,0,0-3-.93,6.53,6.53,0,0,0-1.58.18,6.29,6.29,0,0,0-1.34.5,6.07,6.07,0,0,0-1.16.75,10.26,10.26,0,0,0-1,.95l-.33-1.07a1.27,1.27,0,0,0-.52-.75,1.61,1.61,0,0,0-.93-.25h-3.69V184Zm-29.66,0V169.81a7,7,0,0,1,1.65-1.13,4.17,4.17,0,0,1,1.84-.42,2.41,2.41,0,0,1,2,.82,3.45,3.45,0,0,1,.67,2.27V184h5.95V171.35a10.06,10.06,0,0,0-.44-3,6.79,6.79,0,0,0-1.31-2.4,5.85,5.85,0,0,0-2.12-1.57,6.93,6.93,0,0,0-2.89-.57,8.16,8.16,0,0,0-1.77.18,8,8,0,0,0-1.52.5,7,7,0,0,0-1.31.78,14,14,0,0,0-1.19,1l-.35-1.15a1.27,1.27,0,0,0-.52-.75,1.61,1.61,0,0,0-.93-.25h-3.69V184Zm-22.43-5.55a10.46,10.46,0,0,1,0-8.8,3.49,3.49,0,0,1,3.09-1.44,3.37,3.37,0,0,1,3,1.44,10.46,10.46,0,0,1,0,8.8,3.38,3.38,0,0,1-3,1.45,3.49,3.49,0,0,1-3.09-1.45m-1.06-13.94a9,9,0,0,0-5.32,5.25,11.62,11.62,0,0,0-.73,4.25,11.83,11.83,0,0,0,.73,4.28,9.08,9.08,0,0,0,2.1,3.25,9.2,9.2,0,0,0,3.22,2.05,12.26,12.26,0,0,0,8.28,0,8.91,8.91,0,0,0,5.26-5.3,11.61,11.61,0,0,0,.74-4.28,11.42,11.42,0,0,0-.74-4.25,9.2,9.2,0,0,0-2.07-3.22,9,9,0,0,0-3.19-2,12.43,12.43,0,0,0-8.28,0m-9.1-7.21a3.85,3.85,0,0,0-.79-1.12,3.59,3.59,0,0,0-1.16-.74,3.69,3.69,0,0,0-1.41-.27,3.4,3.4,0,0,0-1.36.27,3.45,3.45,0,0,0-1.89,1.86,3.25,3.25,0,0,0-.28,1.36,3.14,3.14,0,0,0,.28,1.33,3.5,3.5,0,0,0,.76,1.1,3.75,3.75,0,0,0,1.13.74,3.25,3.25,0,0,0,1.36.28,3.51,3.51,0,0,0,1.41-.28,3.61,3.61,0,0,0,1.95-1.84,3.14,3.14,0,0,0,.28-1.33,3.25,3.25,0,0,0-.28-1.36M428.72,184h5.94V164.1h-5.94Zm-5.59-.12a8.09,8.09,0,0,0,2.59-1.3l-1.8-2.82a1.35,1.35,0,0,0-.34-.39.69.69,0,0,0-.43-.13.81.81,0,0,0-.33.07l-.31.16-.38.15a2.11,2.11,0,0,1-.55.07,1.12,1.12,0,0,1-1-.46,1.88,1.88,0,0,1-.33-1.14V168.2h4.83v-4.06h-4.83v-5.82h-3.11a1.19,1.19,0,0,0-1.31.92l-1.17,4.86-3.16.61V167a1.05,1.05,0,0,0,1.11,1.17h1.69v10.29a7.18,7.18,0,0,0,.38,2.39,4.79,4.79,0,0,0,3,3,7.08,7.08,0,0,0,2.5.41,10.21,10.21,0,0,0,3-.43M397.77,180a1.69,1.69,0,0,1-.55-1.44,1.92,1.92,0,0,1,.25-1,2.23,2.23,0,0,1,.94-.79,6.84,6.84,0,0,1,1.82-.58,14.75,14.75,0,0,1,2.93-.24v2.73a6.24,6.24,0,0,1-1.74,1.3,4.73,4.73,0,0,1-2,.41,2.69,2.69,0,0,1-1.63-.42M409,184V171.56a8.9,8.9,0,0,0-.54-3.15,7.26,7.26,0,0,0-1.54-2.48,7,7,0,0,0-2.46-1.63,8.63,8.63,0,0,0-3.25-.59,13.94,13.94,0,0,0-4.71.78,12.08,12.08,0,0,0-4,2.37l1.07,1.86a2.29,2.29,0,0,0,.68.74,1.8,1.8,0,0,0,1.05.3,2.87,2.87,0,0,0,1.19-.23c.33-.16.67-.33,1-.52a8.33,8.33,0,0,1,1.2-.52,5.57,5.57,0,0,1,1.73-.23,2.64,2.64,0,0,1,2,.78,3.73,3.73,0,0,1,.72,2.55v.85a21.89,21.89,0,0,0-5.66.62,11.77,11.77,0,0,0-3.56,1.53,5.38,5.38,0,0,0-1.87,2,5.09,5.09,0,0,0-.53,2.17,6.24,6.24,0,0,0,.42,2.38,4.52,4.52,0,0,0,1.2,1.72,5,5,0,0,0,1.89,1.05,8,8,0,0,0,2.47.36,10.37,10.37,0,0,0,1.85-.16,7.47,7.47,0,0,0,1.58-.5,9.76,9.76,0,0,0,1.43-.82q.69-.48,1.44-1.11l.42,1.09a1.72,1.72,0,0,0,.72,1,2.66,2.66,0,0,0,1.27.23Zm-19.84-17.63a7.44,7.44,0,0,0-1.29-1,8.38,8.38,0,0,0-1.61-.82,10.67,10.67,0,0,0-1.89-.54,10.87,10.87,0,0,0-2.08-.19,10.53,10.53,0,0,0-3.45.51,7.36,7.36,0,0,0-2.46,1.37,5.5,5.5,0,0,0-1.46,2,6.49,6.49,0,0,0-.09,4.72,5.32,5.32,0,0,0,1,1.63,6,6,0,0,0,1.49,1.09,14.1,14.1,0,0,0,1.7.74c.57.2,1.14.38,1.7.54a14,14,0,0,1,1.48.52,3.7,3.7,0,0,1,1.06.66,1.3,1.3,0,0,1,.4,1,1.59,1.59,0,0,1-.13.64,1.56,1.56,0,0,1-.42.55,2.15,2.15,0,0,1-.77.4,4.36,4.36,0,0,1-1.17.14,4.93,4.93,0,0,1-1.62-.23,7.07,7.07,0,0,1-1.13-.5l-.89-.5a1.89,1.89,0,0,0-.93-.23,1.71,1.71,0,0,0-.9.22,1.92,1.92,0,0,0-.59.61l-1.39,2.18a7.56,7.56,0,0,0,1.39,1,10.77,10.77,0,0,0,1.75.78,13.89,13.89,0,0,0,2,.52,10.65,10.65,0,0,0,2,.19,11.91,11.91,0,0,0,3.6-.5,7.58,7.58,0,0,0,2.63-1.4,5.8,5.8,0,0,0,1.6-2.15,6.77,6.77,0,0,0,.54-2.72,5,5,0,0,0-.4-2.07,4.5,4.5,0,0,0-1-1.47,6.39,6.39,0,0,0-1.48-1,16.81,16.81,0,0,0-1.69-.72c-.57-.2-1.14-.39-1.69-.56a13.74,13.74,0,0,1-1.47-.52,3.5,3.5,0,0,1-1.05-.65,1.2,1.2,0,0,1-.39-.92,1.4,1.4,0,0,1,.6-1.2,3,3,0,0,1,1.74-.43,4.65,4.65,0,0,1,1.4.19,10,10,0,0,1,1.1.39l.91.39a2.13,2.13,0,0,0,.85.18,1.32,1.32,0,0,0,.66-.15,1.55,1.55,0,0,0,.49-.52Zm-17.9-9.07a3.56,3.56,0,0,0-2-1.86,3.69,3.69,0,0,0-1.41-.27,3.44,3.44,0,0,0-1.36.27,3.53,3.53,0,0,0-1.89,1.86,3.41,3.41,0,0,0-.28,1.36,3.3,3.3,0,0,0,.28,1.33,3.53,3.53,0,0,0,.77,1.1,3.83,3.83,0,0,0,1.12.74,3.28,3.28,0,0,0,1.36.28,3.51,3.51,0,0,0,1.41-.28,3.66,3.66,0,0,0,1.16-.74,3.43,3.43,0,0,0,.79-1.1,3.15,3.15,0,0,0,.29-1.33,3.25,3.25,0,0,0-.29-1.36M364.87,184h5.95V164.1h-5.95Zm-16.5,0V169.81a7.46,7.46,0,0,1,1.65-1.13,4.17,4.17,0,0,1,1.84-.42,2.41,2.41,0,0,1,2,.82,3.45,3.45,0,0,1,.67,2.27V184h5.95V171.35a10.06,10.06,0,0,0-.44-3,6.79,6.79,0,0,0-1.31-2.4,5.85,5.85,0,0,0-2.12-1.57,6.89,6.89,0,0,0-2.88-.57,8.32,8.32,0,0,0-1.78.18,7.64,7.64,0,0,0-1.51.5,6.74,6.74,0,0,0-1.32.78c-.41.31-.8.64-1.19,1l-.34-1.15a1.33,1.33,0,0,0-.53-.75,1.61,1.61,0,0,0-.93-.25h-3.68V184ZM327,180a1.7,1.7,0,0,1-.56-1.44,1.93,1.93,0,0,1,.26-1,2.26,2.26,0,0,1,.93-.79,7.05,7.05,0,0,1,1.83-.58,14.68,14.68,0,0,1,2.93-.24v2.73a6.24,6.24,0,0,1-1.74,1.3,4.73,4.73,0,0,1-2,.41A2.69,2.69,0,0,1,327,180m11.19,4V171.56a8.9,8.9,0,0,0-.54-3.15,7.13,7.13,0,0,0-1.55-2.48,7,7,0,0,0-2.45-1.63,8.63,8.63,0,0,0-3.25-.59,13.94,13.94,0,0,0-4.71.78,12.08,12.08,0,0,0-4,2.37l1.07,1.86a2.19,2.19,0,0,0,.68.74,1.8,1.8,0,0,0,1.05.3,2.9,2.9,0,0,0,1.19-.23c.33-.16.67-.33,1-.52a7.46,7.46,0,0,1,1.2-.52,5.57,5.57,0,0,1,1.73-.23,2.64,2.64,0,0,1,2,.78,3.73,3.73,0,0,1,.72,2.55v.85a21.83,21.83,0,0,0-5.66.62,12,12,0,0,0-3.57,1.53,5.43,5.43,0,0,0-1.86,2,4.94,4.94,0,0,0-.53,2.17,6.24,6.24,0,0,0,.42,2.38,4.52,4.52,0,0,0,1.2,1.72,4.83,4.83,0,0,0,1.89,1.05,8,8,0,0,0,2.47.36,10.37,10.37,0,0,0,1.85-.16,7.47,7.47,0,0,0,1.58-.5,10.3,10.3,0,0,0,1.43-.82,18,18,0,0,0,1.43-1.11l.43,1.09a1.72,1.72,0,0,0,.72,1,2.66,2.66,0,0,0,1.27.23ZM307.44,172.8a2.42,2.42,0,0,1-.87-.56,2.15,2.15,0,0,1-.51-.83,3.23,3.23,0,0,1-.16-1.06,2.65,2.65,0,0,1,.66-1.9,3.66,3.66,0,0,1,4.28,0,2.65,2.65,0,0,1,.66,1.9,2.45,2.45,0,0,1-2.8,2.65,3.62,3.62,0,0,1-1.26-.2m5.48,12.71a1.61,1.61,0,0,1-.68.66,4.75,4.75,0,0,1-1.32.43,12.14,12.14,0,0,1-2.11.15,10.73,10.73,0,0,1-2-.14,4.66,4.66,0,0,1-1.24-.39,1.5,1.5,0,0,1-.64-.6,1.65,1.65,0,0,1-.18-.77,1.72,1.72,0,0,1,.35-1.07,3.92,3.92,0,0,1,.91-.85,8.51,8.51,0,0,0,1.67.16h1.63a13.3,13.3,0,0,1,1.47.08,6.05,6.05,0,0,1,1.19.25,2.12,2.12,0,0,1,.8.47,1.06,1.06,0,0,1,.3.79,1.78,1.78,0,0,1-.19.83m-7.46-21.31a8,8,0,0,0-2.6,1.29,6,6,0,0,0-1.74,2,5.72,5.72,0,0,0-.63,2.7,5.65,5.65,0,0,0,.89,3.16,6.51,6.51,0,0,0,2.45,2.19,5.51,5.51,0,0,0-1.19.75,4.54,4.54,0,0,0-.83.88,3.27,3.27,0,0,0-.48,1,3.11,3.11,0,0,0-.15.93,3.4,3.4,0,0,0,.4,1.74,3.34,3.34,0,0,0,1.08,1.13,5.37,5.37,0,0,0-2.21,1.43,3.25,3.25,0,0,0-.81,2.24,3.89,3.89,0,0,0,.54,2,5,5,0,0,0,1.66,1.66,9.69,9.69,0,0,0,2.82,1.16,16.42,16.42,0,0,0,4,.44,13.6,13.6,0,0,0,4.22-.6,10.13,10.13,0,0,0,3.11-1.61,7,7,0,0,0,1.92-2.29,5.85,5.85,0,0,0,.65-2.64,4.85,4.85,0,0,0-.53-2.38,4.23,4.23,0,0,0-1.39-1.49,6.16,6.16,0,0,0-2-.81,18.66,18.66,0,0,0-2.26-.35c-.77-.07-1.52-.11-2.26-.11s-1.4,0-2-.08a5.33,5.33,0,0,1-1.39-.31.76.76,0,0,1-.53-.73c0-.34.22-.63.65-.89a12.36,12.36,0,0,0,1.77.11,10.78,10.78,0,0,0,3.16-.45,8.14,8.14,0,0,0,2.57-1.28,6,6,0,0,0,1.7-2,5.61,5.61,0,0,0,.63-2.68,6,6,0,0,0-.27-1.79l1.46-.32a2,2,0,0,0,.95-.44,1.13,1.13,0,0,0,.27-.79v-2.17h-6a9.61,9.61,0,0,0-2.08-.71,11.45,11.45,0,0,0-2.39-.25,11.18,11.18,0,0,0-3.24.45M291.78,184v-12.2a4.08,4.08,0,0,1,3.68-2.49,6.66,6.66,0,0,1,1.11.08,4,4,0,0,0,.77.09,1.06,1.06,0,0,0,.62-.16.87.87,0,0,0,.3-.57l.77-4.37a3.4,3.4,0,0,0-2.19-.66,5,5,0,0,0-3,1,9.67,9.67,0,0,0-2.46,2.67l-.32-1.86a3.72,3.72,0,0,0-.18-.65,1.1,1.1,0,0,0-.31-.44,1.66,1.66,0,0,0-.5-.24,3.09,3.09,0,0,0-.74-.07h-3.53V184Zm-16.23-10.23a7.88,7.88,0,0,1-1.55,2.81,6.48,6.48,0,0,1-2.46,1.75,8.47,8.47,0,0,1-3.32.61,8.63,8.63,0,0,1-3.35-.61,6.44,6.44,0,0,1-2.47-1.75,8,8,0,0,1-1.55-2.81,12.44,12.44,0,0,1-.53-3.75,12.31,12.31,0,0,1,.53-3.73,8,8,0,0,1,1.55-2.82,6.68,6.68,0,0,1,2.47-1.76,8.63,8.63,0,0,1,3.35-.61,8.47,8.47,0,0,1,3.32.61,6.73,6.73,0,0,1,2.46,1.76,7.85,7.85,0,0,1,1.55,2.82,12,12,0,0,1,.54,3.73,12.13,12.13,0,0,1-.54,3.75m6.13-9.37a13.38,13.38,0,0,0-7.52-7.55,15.4,15.4,0,0,0-5.94-1.11,15.64,15.64,0,0,0-6,1.1,13.34,13.34,0,0,0-7.55,7.54,15.81,15.81,0,0,0,0,11.28,13.45,13.45,0,0,0,7.55,7.56,16.76,16.76,0,0,0,11.89,0,13.43,13.43,0,0,0,7.52-7.56,15.76,15.76,0,0,0,0-11.26" fill="#008bc7"/><path d="M747.18,140.89V126.71a7,7,0,0,1,1.65-1.13,4.14,4.14,0,0,1,1.84-.42,2.43,2.43,0,0,1,2,.81,3.53,3.53,0,0,1,.67,2.27v12.65h5.94V128.24a9.8,9.8,0,0,0-.44-3,6.82,6.82,0,0,0-1.3-2.39,6,6,0,0,0-2.12-1.58,6.93,6.93,0,0,0-2.89-.56,8.16,8.16,0,0,0-1.77.18,7.74,7.74,0,0,0-1.52.5,7.15,7.15,0,0,0-1.31.77,14,14,0,0,0-1.19,1l-.35-1.15a1.35,1.35,0,0,0-.53-.75,1.69,1.69,0,0,0-.93-.25h-3.68v19.9Zm-22.43-5.56a10.35,10.35,0,0,1,0-8.79,3.46,3.46,0,0,1,3.09-1.44,3.37,3.37,0,0,1,3,1.44,10.44,10.44,0,0,1,0,8.79,3.36,3.36,0,0,1-3,1.45,3.45,3.45,0,0,1-3.09-1.45m-1.06-13.93a9.28,9.28,0,0,0-3.23,2,9,9,0,0,0-2.09,3.21,11.66,11.66,0,0,0-.74,4.25,11.84,11.84,0,0,0,.74,4.29,9.1,9.1,0,0,0,2.09,3.24,9.35,9.35,0,0,0,3.23,2.06,11.66,11.66,0,0,0,4.15.71,11.53,11.53,0,0,0,4.12-.71,9,9,0,0,0,3.2-2.06,9.19,9.19,0,0,0,2.07-3.24,11.84,11.84,0,0,0,.74-4.29,11.66,11.66,0,0,0-.74-4.25A8.86,8.86,0,0,0,732,121.4a11.31,11.31,0,0,0-4.12-.71,11.44,11.44,0,0,0-4.15.71m-9.11-7.22a3.6,3.6,0,0,0-.78-1.11,3.73,3.73,0,0,0-1.16-.75,3.69,3.69,0,0,0-1.41-.27,3.49,3.49,0,0,0-1.37.27,3.67,3.67,0,0,0-1.12.75,3.74,3.74,0,0,0-.77,1.11,3.44,3.44,0,0,0-.27,1.36,3.34,3.34,0,0,0,.27,1.34,3.65,3.65,0,0,0,.77,1.09,4.07,4.07,0,0,0,1.12.75,3.33,3.33,0,0,0,1.37.28,3.51,3.51,0,0,0,1.41-.28,4.13,4.13,0,0,0,1.16-.75,3.51,3.51,0,0,0,.78-1.09,3,3,0,0,0,.29-1.34,3.14,3.14,0,0,0-.29-1.36m-6.35,26.71h5.95V121h-5.95Zm-5.58-.13a8.17,8.17,0,0,0,2.59-1.29l-1.8-2.82a1.8,1.8,0,0,0-.34-.4.71.71,0,0,0-.43-.12.74.74,0,0,0-.34.07l-.3.15a1.76,1.76,0,0,1-.39.15,1.69,1.69,0,0,1-.54.07,1.14,1.14,0,0,1-1-.45,1.82,1.82,0,0,1-.34-1.14V125.1h4.84V121h-4.84v-5.81h-3.11a1.18,1.18,0,0,0-1.3.92L694.21,121l-3.17.62v2.32a1.12,1.12,0,0,0,.33.87,1.13,1.13,0,0,0,.79.3h1.69v10.28a7,7,0,0,0,.38,2.4,4.83,4.83,0,0,0,2.94,3,7,7,0,0,0,2.51.41,10.21,10.21,0,0,0,3-.43m-25.36-3.91a1.71,1.71,0,0,1-.56-1.45,1.89,1.89,0,0,1,.26-1,2.22,2.22,0,0,1,.93-.8,7.46,7.46,0,0,1,1.83-.58,15.57,15.57,0,0,1,2.93-.23v2.72a6,6,0,0,1-1.75,1.31,4.65,4.65,0,0,1-2,.4,2.74,2.74,0,0,1-1.63-.41m11.18,4V128.46a9.13,9.13,0,0,0-.53-3.15,7.1,7.1,0,0,0-1.55-2.48,7,7,0,0,0-2.45-1.64,8.63,8.63,0,0,0-3.25-.58,13.94,13.94,0,0,0-4.71.78,11.75,11.75,0,0,0-4,2.37l1.07,1.86a2.28,2.28,0,0,0,.68.74,1.88,1.88,0,0,0,1,.29,2.75,2.75,0,0,0,1.19-.23c.33-.15.67-.32,1-.52a7.46,7.46,0,0,1,1.2-.51,5.25,5.25,0,0,1,1.73-.23,2.64,2.64,0,0,1,2,.78,3.7,3.7,0,0,1,.72,2.55v.85A21.88,21.88,0,0,0,677,130a11.72,11.72,0,0,0-3.57,1.53,5.43,5.43,0,0,0-1.86,2,5,5,0,0,0-.54,2.18,6.09,6.09,0,0,0,.43,2.38,4.6,4.6,0,0,0,1.2,1.72,5.1,5.1,0,0,0,1.89,1.05,8,8,0,0,0,2.47.35,9.59,9.59,0,0,0,1.85-.16,6.7,6.7,0,0,0,1.57-.5,8.46,8.46,0,0,0,1.43-.81,17.8,17.8,0,0,0,1.44-1.12l.42,1.1a1.89,1.89,0,0,0,.72,1,2.87,2.87,0,0,0,1.28.23ZM668.56,121H653.17v4.42h8.62l-8.39,11.1a4.27,4.27,0,0,0-.56,1.05,2.59,2.59,0,0,0-.2.91v2.42h15.73v-4.42h-8.88l8.3-11a4,4,0,0,0,.54-1,3.09,3.09,0,0,0,.23-1.17Zm-19.24-6.81a3.65,3.65,0,0,0-2-1.86,3.69,3.69,0,0,0-1.41-.27,3.44,3.44,0,0,0-1.36.27,3.55,3.55,0,0,0-1.12.75,3.41,3.41,0,0,0-.77,1.11,3.28,3.28,0,0,0-.28,1.36,3.19,3.19,0,0,0,.28,1.34,3.33,3.33,0,0,0,.77,1.09,3.93,3.93,0,0,0,1.12.75A3.28,3.28,0,0,0,646,119a3.51,3.51,0,0,0,1.41-.28,4,4,0,0,0,1.16-.75,3.54,3.54,0,0,0,.79-1.09,3.2,3.2,0,0,0,.29-1.34,3.29,3.29,0,0,0-.29-1.36M643,140.89h5.95V121H643Zm-16.5,0V126.71a7,7,0,0,1,1.65-1.13,4.17,4.17,0,0,1,1.84-.42,2.43,2.43,0,0,1,2,.81,3.47,3.47,0,0,1,.67,2.27v12.65h5.95V128.24a10.11,10.11,0,0,0-.44-3,6.84,6.84,0,0,0-1.31-2.39,5.87,5.87,0,0,0-2.12-1.58,6.93,6.93,0,0,0-2.89-.56,8.16,8.16,0,0,0-1.77.18,8,8,0,0,0-1.52.5,7.5,7.5,0,0,0-1.31.77,14,14,0,0,0-1.19,1l-.35-1.15a1.33,1.33,0,0,0-.52-.75,1.69,1.69,0,0,0-.93-.25h-3.69v19.9Zm-21.35-4a1.71,1.71,0,0,1-.56-1.45,1.89,1.89,0,0,1,.26-1,2.22,2.22,0,0,1,.93-.8,7.51,7.51,0,0,1,1.82-.58,15.77,15.77,0,0,1,2.94-.23v2.72a6,6,0,0,1-1.75,1.31,4.65,4.65,0,0,1-2,.4,2.74,2.74,0,0,1-1.63-.41m11.18,4V128.46a9.13,9.13,0,0,0-.53-3.15,7.1,7.1,0,0,0-1.55-2.48,7,7,0,0,0-2.45-1.64,8.65,8.65,0,0,0-3.26-.58,14,14,0,0,0-4.71.78,11.94,11.94,0,0,0-4,2.37l1.08,1.86a2.18,2.18,0,0,0,.68.74,1.88,1.88,0,0,0,1.05.29,2.67,2.67,0,0,0,1.18-.23,11.06,11.06,0,0,0,1-.52,7.46,7.46,0,0,1,1.2-.51,5.25,5.25,0,0,1,1.73-.23,2.64,2.64,0,0,1,2,.78,3.7,3.7,0,0,1,.72,2.55v.85a21.88,21.88,0,0,0-5.66.61,11.72,11.72,0,0,0-3.57,1.53,5.43,5.43,0,0,0-1.86,2,5,5,0,0,0-.54,2.18,6.09,6.09,0,0,0,.43,2.38,4.7,4.7,0,0,0,1.19,1.72,5.26,5.26,0,0,0,1.89,1.05,8.08,8.08,0,0,0,2.48.35,9.59,9.59,0,0,0,1.85-.16,6.7,6.7,0,0,0,1.57-.5,8.46,8.46,0,0,0,1.43-.81,17.8,17.8,0,0,0,1.44-1.12l.42,1.1a1.89,1.89,0,0,0,.72,1,2.87,2.87,0,0,0,1.28.23Zm-30.76-11.2a2.4,2.4,0,0,1-.87-.55,2.26,2.26,0,0,1-.51-.84,3.21,3.21,0,0,1-.16-1.05,2.63,2.63,0,0,1,.66-1.9,2.85,2.85,0,0,1,2.14-.69,2.88,2.88,0,0,1,2.14.69,2.63,2.63,0,0,1,.66,1.9,2.44,2.44,0,0,1-2.8,2.64,3.4,3.4,0,0,1-1.26-.2M591,142.41a1.65,1.65,0,0,1-.68.65,4.17,4.17,0,0,1-1.32.43,11.11,11.11,0,0,1-2.11.16,11.62,11.62,0,0,1-2-.14,4.3,4.3,0,0,1-1.24-.4,1.48,1.48,0,0,1-.64-.59,1.57,1.57,0,0,1-.19-.77,1.71,1.71,0,0,1,.36-1.07,3.76,3.76,0,0,1,.91-.86,8.52,8.52,0,0,0,1.67.17h1.63a13.67,13.67,0,0,1,1.47.07,6,6,0,0,1,1.19.26,2.07,2.07,0,0,1,.8.47,1.06,1.06,0,0,1,.3.78,1.85,1.85,0,0,1-.19.84m-7.47-21.31a8.25,8.25,0,0,0-2.59,1.28,6.08,6.08,0,0,0-1.74,2,5.71,5.71,0,0,0-.63,2.69,5.6,5.6,0,0,0,.89,3.17,6.48,6.48,0,0,0,2.44,2.19,5.35,5.35,0,0,0-1.19.74,5.13,5.13,0,0,0-.82.88,3.4,3.4,0,0,0-.48.95,3.21,3.21,0,0,0-.15.93,3.18,3.18,0,0,0,1.47,2.87,5.34,5.34,0,0,0-2.2,1.44,3.22,3.22,0,0,0-.81,2.23,3.89,3.89,0,0,0,.54,2,4.87,4.87,0,0,0,1.66,1.66,9.69,9.69,0,0,0,2.82,1.16,15.91,15.91,0,0,0,4,.45,13.64,13.64,0,0,0,4.22-.61,9.92,9.92,0,0,0,3.11-1.61,6.77,6.77,0,0,0,1.91-2.29,5.73,5.73,0,0,0,.66-2.63,4.79,4.79,0,0,0-.53-2.38,4.24,4.24,0,0,0-1.39-1.49,6.25,6.25,0,0,0-2-.81,16.89,16.89,0,0,0-2.26-.36c-.77-.07-1.52-.1-2.27-.1a19.08,19.08,0,0,1-2-.09,4.87,4.87,0,0,1-1.39-.31.76.76,0,0,1-.53-.73,1.1,1.1,0,0,1,.65-.89,12.31,12.31,0,0,0,1.77.12,10.78,10.78,0,0,0,3.16-.45,7.8,7.8,0,0,0,2.56-1.29,5.92,5.92,0,0,0,1.71-2,5.65,5.65,0,0,0,.62-2.69,5.9,5.9,0,0,0-.26-1.78L596,125a1.87,1.87,0,0,0,1-.44,1.06,1.06,0,0,0,.28-.79v-2.16h-6a9.27,9.27,0,0,0-2.08-.71,10.82,10.82,0,0,0-2.39-.25,11.25,11.25,0,0,0-3.25.45m-13.67,19.79v-12.2a4.07,4.07,0,0,1,3.68-2.5,5.64,5.64,0,0,1,1.11.09,3.87,3.87,0,0,0,.77.08,1,1,0,0,0,.61-.16.83.83,0,0,0,.31-.56l.77-4.38a3.46,3.46,0,0,0-2.19-.65,5,5,0,0,0-3,1,9.76,9.76,0,0,0-2.46,2.66l-.32-1.86a5.21,5.21,0,0,0-.19-.65,1,1,0,0,0-.3-.43,1.29,1.29,0,0,0-.5-.24,3.1,3.1,0,0,0-.74-.08h-3.53v19.9Zm-16.23-10.24a7.87,7.87,0,0,1-1.55,2.81,6.5,6.5,0,0,1-2.46,1.76,9.57,9.57,0,0,1-6.67,0,6.46,6.46,0,0,1-2.47-1.76,7.72,7.72,0,0,1-1.55-2.81,13.22,13.22,0,0,1,0-7.48,7.8,7.8,0,0,1,1.55-2.81,6.59,6.59,0,0,1,2.47-1.77,9.42,9.42,0,0,1,6.67,0,6.64,6.64,0,0,1,2.46,1.77,8,8,0,0,1,1.55,2.81,13.46,13.46,0,0,1,0,7.48m6.13-9.37a13.5,13.5,0,0,0-2.95-4.53,13.7,13.7,0,0,0-4.57-3,16.69,16.69,0,0,0-11.89,0,13.76,13.76,0,0,0-4.59,3,13.38,13.38,0,0,0-3,4.53,15.81,15.81,0,0,0,0,11.28,13.37,13.37,0,0,0,7.55,7.56,16.76,16.76,0,0,0,11.89,0,13.36,13.36,0,0,0,7.52-7.56,15.76,15.76,0,0,0,0-11.26m-37.33,2a7.79,7.79,0,0,0-1.28-1,10.56,10.56,0,0,0-1.61-.82,10.91,10.91,0,0,0-1.89-.53,11.05,11.05,0,0,0-2.09-.19,10.91,10.91,0,0,0-3.45.5,7.16,7.16,0,0,0-2.45,1.38,5.38,5.38,0,0,0-1.47,2,6.52,6.52,0,0,0-.09,4.73,5,5,0,0,0,1.06,1.62,5.67,5.67,0,0,0,1.48,1.09,13.26,13.26,0,0,0,1.7.74c.58.21,1.14.39,1.7.55a12.22,12.22,0,0,1,1.49.52,3.37,3.37,0,0,1,1.05.66,1.29,1.29,0,0,1,.4,1,1.51,1.51,0,0,1-.13.63,1.59,1.59,0,0,1-.42.56,2.06,2.06,0,0,1-.77.39,4,4,0,0,1-1.17.14,4.71,4.71,0,0,1-1.62-.23,7,7,0,0,1-1.12-.49l-.9-.5a1.78,1.78,0,0,0-.93-.23,1.62,1.62,0,0,0-.9.22,1.88,1.88,0,0,0-.59.6l-1.38,2.19a7.61,7.61,0,0,0,1.38,1,10.29,10.29,0,0,0,1.75.77,14.25,14.25,0,0,0,2,.52,10.81,10.81,0,0,0,2,.19,11.92,11.92,0,0,0,3.6-.49,7.75,7.75,0,0,0,2.63-1.4,5.89,5.89,0,0,0,1.6-2.15,6.79,6.79,0,0,0,.54-2.73,4.87,4.87,0,0,0-.4-2.07,4.6,4.6,0,0,0-1-1.47,6.35,6.35,0,0,0-1.48-1,13.19,13.19,0,0,0-1.69-.72c-.57-.21-1.13-.39-1.68-.56a13.87,13.87,0,0,1-1.48-.53,3.49,3.49,0,0,1-1-.64,1.2,1.2,0,0,1-.39-.92,1.4,1.4,0,0,1,.6-1.2,3,3,0,0,1,1.74-.43,5,5,0,0,1,1.4.18,9.27,9.27,0,0,1,1.1.39l.91.4a2.2,2.2,0,0,0,.85.18,1.29,1.29,0,0,0,.66-.15,1.65,1.65,0,0,0,.49-.52Zm-40.59,17.63V126.5a5.4,5.4,0,0,1,1.35-1,3.38,3.38,0,0,1,1.53-.36,2.62,2.62,0,0,1,2,.69,3.38,3.38,0,0,1,.67,2.39v12.65h5.95V128.24a3.11,3.11,0,0,1,.8-2.29,2.71,2.71,0,0,1,2-.79c1.77,0,2.65,1,2.65,3.08v12.65h6V128.24a10.5,10.5,0,0,0-.46-3.19,6.4,6.4,0,0,0-1.36-2.38,5.82,5.82,0,0,0-2.21-1.48,8.63,8.63,0,0,0-3-.5,8.94,8.94,0,0,0-1.85.19,7.52,7.52,0,0,0-1.77.59,6.37,6.37,0,0,0-1.55,1.06,5.8,5.8,0,0,0-1.22,1.57,5.75,5.75,0,0,0-1.8-2.48,4.65,4.65,0,0,0-3-.93,6.53,6.53,0,0,0-1.58.18,6.29,6.29,0,0,0-1.34.5,6.47,6.47,0,0,0-1.17.75,11.22,11.22,0,0,0-1,.94l-.33-1.07a1.35,1.35,0,0,0-.53-.75,1.65,1.65,0,0,0-.93-.25h-3.68v19.9Zm-22.43-5.56a10.35,10.35,0,0,1,0-8.79,3.46,3.46,0,0,1,3.09-1.44,3.37,3.37,0,0,1,3,1.44,10.44,10.44,0,0,1,0,8.79,3.36,3.36,0,0,1-3,1.45,3.45,3.45,0,0,1-3.09-1.45m-1.06-13.93a9.28,9.28,0,0,0-3.23,2,9.11,9.11,0,0,0-2.09,3.21,11.66,11.66,0,0,0-.74,4.25,11.84,11.84,0,0,0,.74,4.29,9.24,9.24,0,0,0,2.09,3.24,9.35,9.35,0,0,0,3.23,2.06,12.43,12.43,0,0,0,8.28,0,9.09,9.09,0,0,0,3.19-2.06,9.19,9.19,0,0,0,2.07-3.24,11.84,11.84,0,0,0,.74-4.29,11.66,11.66,0,0,0-.74-4.25,8.88,8.88,0,0,0-5.26-5.24,12.43,12.43,0,0,0-8.28,0m-10.1,19.36a8.17,8.17,0,0,0,2.59-1.29l-1.81-2.82a1.56,1.56,0,0,0-.33-.4.73.73,0,0,0-.43-.12.74.74,0,0,0-.34.07l-.31.15a1.67,1.67,0,0,1-.38.15,1.75,1.75,0,0,1-.55.07,1.15,1.15,0,0,1-1-.45,1.88,1.88,0,0,1-.33-1.14V125.1h4.83V121h-4.83v-5.81H442.3a1.18,1.18,0,0,0-1.3.92L439.83,121l-3.17.62v2.32a1.12,1.12,0,0,0,.33.87,1.1,1.1,0,0,0,.78.3h1.69v10.28a7.28,7.28,0,0,0,.38,2.4,4.87,4.87,0,0,0,3,3,6.9,6.9,0,0,0,2.5.41,10.23,10.23,0,0,0,3-.43m-13.34-17.5a7.79,7.79,0,0,0-1.28-1,10.56,10.56,0,0,0-1.61-.82,11.71,11.71,0,0,0-7.43-.22,7.16,7.16,0,0,0-2.45,1.38,5.5,5.5,0,0,0-1.47,2,6.52,6.52,0,0,0-.09,4.73,5,5,0,0,0,1.06,1.62,5.67,5.67,0,0,0,1.48,1.09,13.26,13.26,0,0,0,1.7.74c.58.21,1.14.39,1.7.55a12.22,12.22,0,0,1,1.49.52,3.37,3.37,0,0,1,1.05.66,1.3,1.3,0,0,1,.41,1,1.52,1.52,0,0,1-.14.63,1.59,1.59,0,0,1-.42.56,2.06,2.06,0,0,1-.77.39,4,4,0,0,1-1.17.14,4.71,4.71,0,0,1-1.62-.23,7,7,0,0,1-1.12-.49l-.89-.5a1.83,1.83,0,0,0-.93-.23,1.64,1.64,0,0,0-.91.22,1.88,1.88,0,0,0-.59.6l-1.38,2.19a7.61,7.61,0,0,0,1.38,1,10.29,10.29,0,0,0,1.75.77,14.25,14.25,0,0,0,2,.52,10.81,10.81,0,0,0,2,.19,11.92,11.92,0,0,0,3.6-.49,7.75,7.75,0,0,0,2.63-1.4,5.89,5.89,0,0,0,1.6-2.15,6.79,6.79,0,0,0,.54-2.73,5,5,0,0,0-.39-2.07,4.79,4.79,0,0,0-1.05-1.47,6.35,6.35,0,0,0-1.48-1,13.19,13.19,0,0,0-1.69-.72c-.57-.21-1.13-.39-1.68-.56a13.87,13.87,0,0,1-1.48-.53,3.62,3.62,0,0,1-1-.64,1.2,1.2,0,0,1-.39-.92,1.4,1.4,0,0,1,.6-1.2,3,3,0,0,1,1.74-.43,5,5,0,0,1,1.4.18,9.27,9.27,0,0,1,1.1.39l.92.4a2.12,2.12,0,0,0,.84.18,1.29,1.29,0,0,0,.66-.15,1.65,1.65,0,0,0,.49-.52ZM398.79,121v12.63a10,10,0,0,0,.44,3,7,7,0,0,0,1.31,2.4,6,6,0,0,0,2.12,1.58,6.89,6.89,0,0,0,2.88.56,8.16,8.16,0,0,0,1.77-.18,7.55,7.55,0,0,0,1.5-.5,7.19,7.19,0,0,0,1.32-.76,12.26,12.26,0,0,0,1.19-1l.36,1.15a1.4,1.4,0,0,0,1.46,1h3.68V121h-5.94v14.18a6.79,6.79,0,0,1-1.66,1.13,4.24,4.24,0,0,1-1.84.41,2.41,2.41,0,0,1-2-.81,3.46,3.46,0,0,1-.67-2.28V121Zm-6.6,12.79a2.23,2.23,0,0,0-.5.32,7.46,7.46,0,0,1-1.14.83,6.42,6.42,0,0,1-1.19.55,6.2,6.2,0,0,1-1.35.29,13.22,13.22,0,0,1-1.61.09,7.1,7.1,0,0,1-2.88-.59,6.77,6.77,0,0,1-2.35-1.74,8.42,8.42,0,0,1-1.59-2.81,11.52,11.52,0,0,1-.59-3.82,11,11,0,0,1,.59-3.7,8.18,8.18,0,0,1,1.63-2.81,7,7,0,0,1,2.5-1.79,8.21,8.21,0,0,1,3.22-.62,9.32,9.32,0,0,1,1.78.15,8.43,8.43,0,0,1,1.32.38,6,6,0,0,1,1,.48l.76.48c.23.14.45.27.65.37a1.49,1.49,0,0,0,.65.16,1.28,1.28,0,0,0,.81-.23,2.86,2.86,0,0,0,.5-.48l2.18-2.94a10.74,10.74,0,0,0-1.8-1.51,13,13,0,0,0-2.22-1.17,15,15,0,0,0-5.57-1,16.16,16.16,0,0,0-5.93,1.05,13.63,13.63,0,0,0-4.61,3,13.29,13.29,0,0,0-3,4.52,14.89,14.89,0,0,0-1.08,5.74,16.9,16.9,0,0,0,.94,5.69,13.19,13.19,0,0,0,2.7,4.53,12.37,12.37,0,0,0,4.28,3,14.34,14.34,0,0,0,5.7,1.08,14.8,14.8,0,0,0,6-1.12,10.76,10.76,0,0,0,4.23-3.33l-2.57-2.7a1.33,1.33,0,0,0-.44-.3,1.29,1.29,0,0,0-.46-.09,1.39,1.39,0,0,0-.56.13M351,136.34a2.47,2.47,0,0,1-1-1,5.46,5.46,0,0,1-.65-1.74,13,13,0,0,1-.23-2.64,11.63,11.63,0,0,1,.29-2.78,5.4,5.4,0,0,1,.8-1.87,3.13,3.13,0,0,1,1.2-1,3.44,3.44,0,0,1,1.51-.33,4.5,4.5,0,0,1,1.64.3,3.94,3.94,0,0,1,1.47,1v8.44a8.52,8.52,0,0,1-.78.8,4.14,4.14,0,0,1-.83.58,4.29,4.29,0,0,1-1,.35,4.79,4.79,0,0,1-1.18.13,2.91,2.91,0,0,1-1.29-.29m11,4.55V112.17H356v10.07a7.46,7.46,0,0,0-1.93-1.18,6.69,6.69,0,0,0-2.6-.45,7.6,7.6,0,0,0-3.47.79,8.1,8.1,0,0,0-2.7,2.17,10.36,10.36,0,0,0-1.73,3.3A13.45,13.45,0,0,0,343,131a15.64,15.64,0,0,0,.55,4.3,10,10,0,0,0,1.51,3.2,6.63,6.63,0,0,0,2.28,2,6.12,6.12,0,0,0,2.88.69,8.18,8.18,0,0,0,1.89-.2,7.31,7.31,0,0,0,1.63-.57,8.59,8.59,0,0,0,1.41-.89,11.22,11.22,0,0,0,1.24-1.16l.46,1.52a1.4,1.4,0,0,0,.53.75,1.69,1.69,0,0,0,.93.25Zm-28.4,0h5.95V112.17h-5.95Zm-10.09,0v-12.2a4.09,4.09,0,0,1,3.69-2.5,5.78,5.78,0,0,1,1.11.09,3.8,3.8,0,0,0,.77.08,1,1,0,0,0,.61-.16.88.88,0,0,0,.31-.56l.76-4.38a3.43,3.43,0,0,0-2.18-.65,5,5,0,0,0-3,1,9.89,9.89,0,0,0-2.45,2.66l-.33-1.86a4,4,0,0,0-.18-.65,1,1,0,0,0-.31-.43,1.23,1.23,0,0,0-.5-.24,3,3,0,0,0-.73-.08h-3.53v19.9Zm-22.42-5.56a10.35,10.35,0,0,1,0-8.79,3.46,3.46,0,0,1,3.08-1.44,3.4,3.4,0,0,1,3,1.44,10.44,10.44,0,0,1,0,8.79,3.39,3.39,0,0,1-3,1.45,3.44,3.44,0,0,1-3.08-1.45M300,121.4a9.15,9.15,0,0,0-3.22,2,9,9,0,0,0-2.09,3.21,11.45,11.45,0,0,0-.74,4.25,11.63,11.63,0,0,0,.74,4.29,9.1,9.1,0,0,0,2.09,3.24,9.22,9.22,0,0,0,3.22,2.06,12.43,12.43,0,0,0,8.28,0,9.09,9.09,0,0,0,3.19-2.06,9.36,9.36,0,0,0,2.08-3.24,11.84,11.84,0,0,0,.73-4.29,11.66,11.66,0,0,0-.73-4.25,9.23,9.23,0,0,0-2.08-3.21,9,9,0,0,0-3.19-2,12.43,12.43,0,0,0-8.28,0m-38.32,19.49h5.87l5.33-17.33c.09-.26.19-.56.28-.88s.19-.66.28-1c.09.36.18.7.28,1s.19.62.28.88l5.25,17.33h5.87l8.64-27.95h-5.11a2.3,2.3,0,0,0-1.38.42,1.85,1.85,0,0,0-.73,1l-3.83,14.58c-.12.44-.23.92-.34,1.44s-.21,1-.32,1.61a16,16,0,0,0-.4-1.62c-.15-.51-.3-1-.44-1.43l-4.49-14.58a1.89,1.89,0,0,0-.76-1,2.4,2.4,0,0,0-1.39-.37h-1.92a2.2,2.2,0,0,0-1.37.43,2,2,0,0,0-.74,1L266,128.92c-.15.47-.29,1-.45,1.5s-.29,1.1-.42,1.7a12.67,12.67,0,0,0-.29-1.69c-.12-.54-.25-1-.38-1.51l-3.84-14.58a1.72,1.72,0,0,0-.74-1,2.39,2.39,0,0,0-1.41-.38H253Z" fill="#008bc7"/><path d="M218.82,137.7a42.56,42.56,0,0,1-85.11,0h-16.4c.11,28.83,20.1,52.47,46.94,57.71,3.64.72,10.41,3.44,12.08,13.53,1.77-10.09,8-13.07,11.33-13.69,26.71-5,46.85-29,47-57.55Z" fill="url(#New_Gradient_Swatch_3)"/><path d="M139.84,135.4a36.23,36.23,0,0,0,32.64,36V154.19a19.07,19.07,0,0,1,0-37.59V99.36a36.23,36.23,0,0,0-32.64,36" fill="url(#New_Gradient_Swatch_2)"/><path d="M179.29,116.58a19.07,19.07,0,0,1,0,37.64v17.22a36.2,36.2,0,0,0,0-72.08Z" fill="url(#New_Gradient_Swatch_2-2)"/></svg>